File: THEMEFX.MID
MFile 1 7 384
MTrk
0 TimeSig 4/4 96 8
0 SeqSpec 00 00 41
0 Tempo 571428
0 Meta TrkEnd
TrkEnd
MTrk
0 Par ch=1 c=0 v=0
0 PrCh ch=1 p=80
0 On ch=1 n=76 v=67
64 Off ch=1 n=76 v=67
96 On ch=1 n=76 v=67
160 Off ch=1 n=76 v=67
288 On ch=1 n=76 v=67
352 Off ch=1 n=76 v=67
480 On ch=1 n=72 v=67
544 Off ch=1 n=72 v=67
576 On ch=1 n=76 v=67
640 Off ch=1 n=76 v=67
768 On ch=1 n=79 v=67
832 Off ch=1 n=79 v=67
1536 On ch=1 n=72 v=67
1600 Off ch=1 n=72 v=67
1824 On ch=1 n=67 v=67
1888 Off ch=1 n=67 v=67
2112 On ch=1 n=64 v=67
2176 Off ch=1 n=64 v=67
2400 On ch=1 n=69 v=67
2464 Off ch=1 n=69 v=67
2592 On ch=1 n=71 v=67
2656 Off ch=1 n=71 v=67
2784 On ch=1 n=70 v=67
2848 Off ch=1 n=70 v=67
2880 On ch=1 n=69 v=67
2944 Off ch=1 n=69 v=67
3072 On ch=1 n=67 v=67
3136 Off ch=1 n=67 v=67
3200 On ch=1 n=76 v=67
3264 Off ch=1 n=76 v=67
3328 On ch=1 n=79 v=67
3392 Off ch=1 n=79 v=67
3456 On ch=1 n=81 v=67
3520 Off ch=1 n=81 v=67
3648 On ch=1 n=77 v=67
3712 Off ch=1 n=77 v=67
3744 On ch=1 n=79 v=67
3808 Off ch=1 n=79 v=67
3936 On ch=1 n=76 v=67
4000 Off ch=1 n=76 v=67
4128 On ch=1 n=72 v=67
4192 Off ch=1 n=72 v=67
4224 On ch=1 n=74 v=67
4288 Off ch=1 n=74 v=67
4320 On ch=1 n=71 v=67
4384 Off ch=1 n=71 v=67
4608 On ch=1 n=72 v=67
4672 Off ch=1 n=72 v=67
4896 On ch=1 n=67 v=67
4960 Off ch=1 n=67 v=67
5184 On ch=1 n=64 v=67
5248 Off ch=1 n=64 v=67
5472 On ch=1 n=69 v=67
5536 Off ch=1 n=69 v=67
5664 On ch=1 n=71 v=67
5728 Off ch=1 n=71 v=67
5856 On ch=1 n=70 v=67
5920 Off ch=1 n=70 v=67
5952 On ch=1 n=69 v=67
6016 Off ch=1 n=69 v=67
6144 On ch=1 n=67 v=67
6208 Off ch=1 n=67 v=67
6272 On ch=1 n=76 v=67
6336 Off ch=1 n=76 v=67
6400 On ch=1 n=79 v=67
6464 Off ch=1 n=79 v=67
6528 On ch=1 n=81 v=67
6592 Off ch=1 n=81 v=67
6720 On ch=1 n=77 v=67
6784 Off ch=1 n=77 v=67
6816 On ch=1 n=79 v=67
6880 Off ch=1 n=79 v=67
7008 On ch=1 n=76 v=67
7072 Off ch=1 n=76 v=67
7200 On ch=1 n=72 v=67
7264 Off ch=1 n=72 v=67
7296 On ch=1 n=74 v=67
7360 Off ch=1 n=74 v=67
7392 On ch=1 n=71 v=67
7456 Off ch=1 n=71 v=67
7872 On ch=1 n=79 v=67
7936 Off ch=1 n=79 v=67
7968 On ch=1 n=78 v=67
8032 Off ch=1 n=78 v=67
8064 On ch=1 n=77 v=67
8128 Off ch=1 n=77 v=67
8160 On ch=1 n=75 v=67
8224 Off ch=1 n=75 v=67
8352 On ch=1 n=76 v=67
8416 Off ch=1 n=76 v=67
8544 On ch=1 n=68 v=67
8608 Off ch=1 n=68 v=67
8640 On ch=1 n=69 v=67
8704 Off ch=1 n=69 v=67
8736 On ch=1 n=72 v=67
8800 Off ch=1 n=72 v=67
8928 On ch=1 n=69 v=67
8992 Off ch=1 n=69 v=67
9024 On ch=1 n=72 v=67
9088 Off ch=1 n=72 v=67
9120 On ch=1 n=74 v=67
9184 Off ch=1 n=74 v=67
9408 On ch=1 n=79 v=67
9472 Off ch=1 n=79 v=67
9504 On ch=1 n=78 v=67
9568 Off ch=1 n=78 v=67
9600 On ch=1 n=77 v=67
9664 Off ch=1 n=77 v=67
9696 On ch=1 n=75 v=67
9760 Off ch=1 n=75 v=67
9888 On ch=1 n=76 v=67
9952 Off ch=1 n=76 v=67
10080 On ch=1 n=84 v=67
10144 Off ch=1 n=84 v=67
10272 On ch=1 n=84 v=67
10336 Off ch=1 n=84 v=67
10368 On ch=1 n=84 v=67
10432 Off ch=1 n=84 v=67
10944 On ch=1 n=79 v=67
11008 Off ch=1 n=79 v=67
11040 On ch=1 n=78 v=67
11104 Off ch=1 n=78 v=67
11136 On ch=1 n=77 v=67
11200 Off ch=1 n=77 v=67
11232 On ch=1 n=75 v=67
11296 Off ch=1 n=75 v=67
11424 On ch=1 n=76 v=67
11488 Off ch=1 n=76 v=67
11616 On ch=1 n=68 v=67
11680 Off ch=1 n=68 v=67
11712 On ch=1 n=69 v=67
11776 Off ch=1 n=69 v=67
11808 On ch=1 n=72 v=67
11872 Off ch=1 n=72 v=67
12000 On ch=1 n=69 v=67
12064 Off ch=1 n=69 v=67
12096 On ch=1 n=72 v=67
12160 Off ch=1 n=72 v=67
12192 On ch=1 n=74 v=67
12256 Off ch=1 n=74 v=67
12480 On ch=1 n=75 v=67
12544 Off ch=1 n=75 v=67
12768 On ch=1 n=74 v=67
12832 Off ch=1 n=74 v=67
13056 On ch=1 n=72 v=67
13120 Off ch=1 n=72 v=67
14016 On ch=1 n=79 v=67
14080 Off ch=1 n=79 v=67
14112 On ch=1 n=78 v=67
14176 Off ch=1 n=78 v=67
14208 On ch=1 n=77 v=67
14272 Off ch=1 n=77 v=67
14304 On ch=1 n=75 v=67
14368 Off ch=1 n=75 v=67
14496 On ch=1 n=76 v=67
14560 Off ch=1 n=76 v=67
14688 On ch=1 n=68 v=67
14752 Off ch=1 n=68 v=67
14784 On ch=1 n=69 v=67
14848 Off ch=1 n=69 v=67
14880 On ch=1 n=72 v=67
14944 Off ch=1 n=72 v=67
15072 On ch=1 n=69 v=67
15136 Off ch=1 n=69 v=67
15168 On ch=1 n=72 v=67
15232 Off ch=1 n=72 v=67
15264 On ch=1 n=74 v=67
15328 Off ch=1 n=74 v=67
15552 On ch=1 n=79 v=67
15616 Off ch=1 n=79 v=67
15648 On ch=1 n=78 v=67
15712 Off ch=1 n=78 v=67
15744 On ch=1 n=77 v=67
15808 Off ch=1 n=77 v=67
15840 On ch=1 n=75 v=67
15904 Off ch=1 n=75 v=67
16032 On ch=1 n=76 v=67
16096 Off ch=1 n=76 v=67
16224 On ch=1 n=84 v=67
16288 Off ch=1 n=84 v=67
16416 On ch=1 n=84 v=67
16480 Off ch=1 n=84 v=67
16512 On ch=1 n=84 v=67
16576 Off ch=1 n=84 v=67
17088 On ch=1 n=79 v=67
17152 Off ch=1 n=79 v=67
17184 On ch=1 n=78 v=67
17248 Off ch=1 n=78 v=67
17280 On ch=1 n=77 v=67
17344 Off ch=1 n=77 v=67
17376 On ch=1 n=75 v=67
17440 Off ch=1 n=75 v=67
17568 On ch=1 n=76 v=67
17632 Off ch=1 n=76 v=67
17760 On ch=1 n=68 v=67
17824 Off ch=1 n=68 v=67
17856 On ch=1 n=69 v=67
17920 Off ch=1 n=69 v=67
17952 On ch=1 n=72 v=67
18016 Off ch=1 n=72 v=67
18144 On ch=1 n=69 v=67
18208 Off ch=1 n=69 v=67
18240 On ch=1 n=72 v=67
18304 Off ch=1 n=72 v=67
18336 On ch=1 n=74 v=67
18400 Off ch=1 n=74 v=67
18624 On ch=1 n=75 v=67
18688 Off ch=1 n=75 v=67
18912 On ch=1 n=74 v=67
18976 Off ch=1 n=74 v=67
19200 On ch=1 n=72 v=67
19264 Off ch=1 n=72 v=67
19968 On ch=1 n=72 v=67
20032 Off ch=1 n=72 v=67
20064 On ch=1 n=72 v=67
20128 Off ch=1 n=72 v=67
20256 On ch=1 n=72 v=67
20320 Off ch=1 n=72 v=67
20448 On ch=1 n=72 v=67
20512 Off ch=1 n=72 v=67
20544 On ch=1 n=74 v=67
20608 Off ch=1 n=74 v=67
20736 On ch=1 n=76 v=67
20800 Off ch=1 n=76 v=67
20832 On ch=1 n=72 v=67
20896 Off ch=1 n=72 v=67
21024 On ch=1 n=69 v=67
21088 Off ch=1 n=69 v=67
21120 On ch=1 n=67 v=67
21184 Off ch=1 n=67 v=67
21504 On ch=1 n=72 v=67
21568 Off ch=1 n=72 v=67
21600 On ch=1 n=72 v=67
21664 Off ch=1 n=72 v=67
21792 On ch=1 n=72 v=67
21856 Off ch=1 n=72 v=67
21984 On ch=1 n=72 v=67
22048 Off ch=1 n=72 v=67
22080 On ch=1 n=74 v=67
22144 Off ch=1 n=74 v=67
22176 On ch=1 n=76 v=67
22240 Off ch=1 n=76 v=67
23040 On ch=1 n=72 v=67
23104 Off ch=1 n=72 v=67
23136 On ch=1 n=72 v=67
23200 Off ch=1 n=72 v=67
23328 On ch=1 n=72 v=67
23392 Off ch=1 n=72 v=67
23520 On ch=1 n=72 v=67
23584 Off ch=1 n=72 v=67
23616 On ch=1 n=74 v=67
23680 Off ch=1 n=74 v=67
23808 On ch=1 n=76 v=67
23872 Off ch=1 n=76 v=67
23904 On ch=1 n=72 v=67
23968 Off ch=1 n=72 v=67
24096 On ch=1 n=69 v=67
24160 Off ch=1 n=69 v=67
24192 On ch=1 n=67 v=67
24256 Off ch=1 n=67 v=67
24576 On ch=1 n=76 v=67
24640 Off ch=1 n=76 v=67
24672 On ch=1 n=76 v=67
24736 Off ch=1 n=76 v=67
24864 On ch=1 n=76 v=67
24928 Off ch=1 n=76 v=67
25056 On ch=1 n=72 v=67
25120 Off ch=1 n=72 v=67
25152 On ch=1 n=76 v=67
25216 Off ch=1 n=76 v=67
25344 On ch=1 n=79 v=67
25408 Off ch=1 n=79 v=67
26112 On ch=1 n=72 v=67
26176 Off ch=1 n=72 v=67
26400 On ch=1 n=67 v=67
26464 Off ch=1 n=67 v=67
26688 On ch=1 n=64 v=67
26752 Off ch=1 n=64 v=67
26976 On ch=1 n=69 v=67
27040 Off ch=1 n=69 v=67
27168 On ch=1 n=71 v=67
27232 Off ch=1 n=71 v=67
27360 On ch=1 n=70 v=67
27424 Off ch=1 n=70 v=67
27456 On ch=1 n=69 v=67
27520 Off ch=1 n=69 v=67
27648 On ch=1 n=67 v=67
27712 Off ch=1 n=67 v=67
27776 On ch=1 n=76 v=67
27840 Off ch=1 n=76 v=67
27904 On ch=1 n=79 v=67
27968 Off ch=1 n=79 v=67
28032 On ch=1 n=81 v=67
28096 Off ch=1 n=81 v=67
28224 On ch=1 n=77 v=67
28288 Off ch=1 n=77 v=67
28320 On ch=1 n=79 v=67
28384 Off ch=1 n=79 v=67
28512 On ch=1 n=76 v=67
28576 Off ch=1 n=76 v=67
28704 On ch=1 n=72 v=67
28768 Off ch=1 n=72 v=67
28800 On ch=1 n=74 v=67
28864 Off ch=1 n=74 v=67
28896 On ch=1 n=71 v=67
28960 Off ch=1 n=71 v=67
29184 On ch=1 n=72 v=67
29248 Off ch=1 n=72 v=67
29472 On ch=1 n=67 v=67
29536 Off ch=1 n=67 v=67
29760 On ch=1 n=64 v=67
29824 Off ch=1 n=64 v=67
30048 On ch=1 n=69 v=67
30112 Off ch=1 n=69 v=67
30240 On ch=1 n=71 v=67
30304 Off ch=1 n=71 v=67
30432 On ch=1 n=70 v=67
30496 Off ch=1 n=70 v=67
30528 On ch=1 n=69 v=67
30592 Off ch=1 n=69 v=67
30720 On ch=1 n=67 v=67
30784 Off ch=1 n=67 v=67
30848 On ch=1 n=76 v=67
30912 Off ch=1 n=76 v=67
30976 On ch=1 n=79 v=67
31040 Off ch=1 n=79 v=67
31104 On ch=1 n=81 v=67
31168 Off ch=1 n=81 v=67
31296 On ch=1 n=77 v=67
31360 Off ch=1 n=77 v=67
31392 On ch=1 n=79 v=67
31456 Off ch=1 n=79 v=67
31584 On ch=1 n=76 v=67
31648 Off ch=1 n=76 v=67
31776 On ch=1 n=72 v=67
31840 Off ch=1 n=72 v=67
31872 On ch=1 n=74 v=67
31936 Off ch=1 n=74 v=67
31968 On ch=1 n=71 v=67
32032 Off ch=1 n=71 v=67
32256 On ch=1 n=76 v=67
32320 Off ch=1 n=76 v=67
32352 On ch=1 n=72 v=67
32416 Off ch=1 n=72 v=67
32544 On ch=1 n=67 v=67
32608 Off ch=1 n=67 v=67
32832 On ch=1 n=68 v=67
32896 Off ch=1 n=68 v=67
33024 On ch=1 n=69 v=67
33088 Off ch=1 n=69 v=67
33120 On ch=1 n=77 v=67
33184 Off ch=1 n=77 v=67
33312 On ch=1 n=77 v=67
33376 Off ch=1 n=77 v=67
33408 On ch=1 n=69 v=67
33472 Off ch=1 n=69 v=67
33792 On ch=1 n=71 v=67
33856 Off ch=1 n=71 v=67
33920 On ch=1 n=81 v=67
33984 Off ch=1 n=81 v=67
34048 On ch=1 n=81 v=67
34112 Off ch=1 n=81 v=67
34176 On ch=1 n=81 v=67
34240 Off ch=1 n=81 v=67
34304 On ch=1 n=79 v=67
34368 Off ch=1 n=79 v=67
34432 On ch=1 n=77 v=67
34496 Off ch=1 n=77 v=67
34560 On ch=1 n=76 v=67
34624 Off ch=1 n=76 v=67
34656 On ch=1 n=72 v=67
34720 Off ch=1 n=72 v=67
34848 On ch=1 n=69 v=67
34912 Off ch=1 n=69 v=67
34944 On ch=1 n=67 v=67
35008 Off ch=1 n=67 v=67
35328 On ch=1 n=76 v=67
35392 Off ch=1 n=76 v=67
35424 On ch=1 n=72 v=67
35488 Off ch=1 n=72 v=67
35616 On ch=1 n=67 v=67
35680 Off ch=1 n=67 v=67
35904 On ch=1 n=68 v=67
35968 Off ch=1 n=68 v=67
36096 On ch=1 n=69 v=67
36160 Off ch=1 n=69 v=67
36192 On ch=1 n=77 v=67
36256 Off ch=1 n=77 v=67
36384 On ch=1 n=77 v=67
36448 Off ch=1 n=77 v=67
36480 On ch=1 n=69 v=67
36544 Off ch=1 n=69 v=67
36864 On ch=1 n=71 v=67
36928 Off ch=1 n=71 v=67
36960 On ch=1 n=77 v=67
37024 Off ch=1 n=77 v=67
37152 On ch=1 n=77 v=67
37216 Off ch=1 n=77 v=67
37248 On ch=1 n=77 v=67
37312 Off ch=1 n=77 v=67
37376 On ch=1 n=76 v=67
37440 Off ch=1 n=76 v=67
37504 On ch=1 n=74 v=67
37568 Off ch=1 n=74 v=67
37632 On ch=1 n=72 v=67
37696 Off ch=1 n=72 v=67
38400 On ch=1 n=76 v=67
38464 Off ch=1 n=76 v=67
38496 On ch=1 n=72 v=67
38560 Off ch=1 n=72 v=67
38688 On ch=1 n=67 v=67
38752 Off ch=1 n=67 v=67
38976 On ch=1 n=68 v=67
39040 Off ch=1 n=68 v=67
39168 On ch=1 n=69 v=67
39232 Off ch=1 n=69 v=67
39264 On ch=1 n=77 v=67
39328 Off ch=1 n=77 v=67
39456 On ch=1 n=77 v=67
39520 Off ch=1 n=77 v=67
39552 On ch=1 n=69 v=67
39616 Off ch=1 n=69 v=67
39936 On ch=1 n=71 v=67
40000 Off ch=1 n=71 v=67
40064 On ch=1 n=81 v=67
40128 Off ch=1 n=81 v=67
40192 On ch=1 n=81 v=67
40256 Off ch=1 n=81 v=67
40320 On ch=1 n=81 v=67
40384 Off ch=1 n=81 v=67
40448 On ch=1 n=79 v=67
40512 Off ch=1 n=79 v=67
40576 On ch=1 n=77 v=67
40640 Off ch=1 n=77 v=67
40704 On ch=1 n=76 v=67
40768 Off ch=1 n=76 v=67
40800 On ch=1 n=72 v=67
40864 Off ch=1 n=72 v=67
40992 On ch=1 n=69 v=67
41056 Off ch=1 n=69 v=67
41088 On ch=1 n=67 v=67
41152 Off ch=1 n=67 v=67
41472 On ch=1 n=76 v=67
41536 Off ch=1 n=76 v=67
41568 On ch=1 n=72 v=67
41632 Off ch=1 n=72 v=67
41760 On ch=1 n=67 v=67
41824 Off ch=1 n=67 v=67
42048 On ch=1 n=68 v=67
42112 Off ch=1 n=68 v=67
42240 On ch=1 n=69 v=67
42304 Off ch=1 n=69 v=67
42336 On ch=1 n=77 v=67
42400 Off ch=1 n=77 v=67
42528 On ch=1 n=77 v=67
42592 Off ch=1 n=77 v=67
42624 On ch=1 n=69 v=67
42688 Off ch=1 n=69 v=67
43008 On ch=1 n=71 v=67
43072 Off ch=1 n=71 v=67
43104 On ch=1 n=77 v=67
43168 Off ch=1 n=77 v=67
43296 On ch=1 n=77 v=67
43360 Off ch=1 n=77 v=67
43392 On ch=1 n=77 v=67
43456 Off ch=1 n=77 v=67
43520 On ch=1 n=76 v=67
43584 Off ch=1 n=76 v=67
43648 On ch=1 n=74 v=67
43712 Off ch=1 n=74 v=67
43776 On ch=1 n=72 v=67
43840 Off ch=1 n=72 v=67
44544 On ch=1 n=72 v=67
44608 Off ch=1 n=72 v=67
44640 On ch=1 n=72 v=67
44704 Off ch=1 n=72 v=67
44832 On ch=1 n=72 v=67
44896 Off ch=1 n=72 v=67
45024 On ch=1 n=72 v=67
45088 Off ch=1 n=72 v=67
45120 On ch=1 n=74 v=67
45184 Off ch=1 n=74 v=67
45312 On ch=1 n=76 v=67
45376 Off ch=1 n=76 v=67
45408 On ch=1 n=72 v=67
45472 Off ch=1 n=72 v=67
45600 On ch=1 n=69 v=67
45664 Off ch=1 n=69 v=67
45696 On ch=1 n=67 v=67
45760 Off ch=1 n=67 v=67
46080 On ch=1 n=72 v=67
46144 Off ch=1 n=72 v=67
46176 On ch=1 n=72 v=67
46240 Off ch=1 n=72 v=67
46368 On ch=1 n=72 v=67
46432 Off ch=1 n=72 v=67
46560 On ch=1 n=72 v=67
46624 Off ch=1 n=72 v=67
46656 On ch=1 n=74 v=67
46720 Off ch=1 n=74 v=67
46752 On ch=1 n=76 v=67
46816 Off ch=1 n=76 v=67
47616 On ch=1 n=72 v=67
47680 Off ch=1 n=72 v=67
47712 On ch=1 n=72 v=67
47776 Off ch=1 n=72 v=67
47904 On ch=1 n=72 v=67
47968 Off ch=1 n=72 v=67
48096 On ch=1 n=72 v=67
48160 Off ch=1 n=72 v=67
48192 On ch=1 n=74 v=67
48256 Off ch=1 n=74 v=67
48384 On ch=1 n=76 v=67
48448 Off ch=1 n=76 v=67
48480 On ch=1 n=72 v=67
48544 Off ch=1 n=72 v=67
48672 On ch=1 n=69 v=67
48736 Off ch=1 n=69 v=67
48768 On ch=1 n=67 v=67
48832 Off ch=1 n=67 v=67
49152 On ch=1 n=76 v=67
49216 Off ch=1 n=76 v=67
49248 On ch=1 n=76 v=67
49312 Off ch=1 n=76 v=67
49440 On ch=1 n=76 v=67
49504 Off ch=1 n=76 v=67
49632 On ch=1 n=72 v=67
49696 Off ch=1 n=72 v=67
49728 On ch=1 n=76 v=67
49792 Off ch=1 n=76 v=67
49920 On ch=1 n=79 v=67
49984 Off ch=1 n=79 v=67
50688 On ch=1 n=76 v=67
50752 Off ch=1 n=76 v=67
50784 On ch=1 n=72 v=67
50848 Off ch=1 n=72 v=67
50976 On ch=1 n=67 v=67
51040 Off ch=1 n=67 v=67
51264 On ch=1 n=68 v=67
51328 Off ch=1 n=68 v=67
51456 On ch=1 n=69 v=67
51520 Off ch=1 n=69 v=67
51552 On ch=1 n=77 v=67
51616 Off ch=1 n=77 v=67
51744 On ch=1 n=77 v=67
51808 Off ch=1 n=77 v=67
51840 On ch=1 n=69 v=67
51904 Off ch=1 n=69 v=67
52224 On ch=1 n=71 v=67
52288 Off ch=1 n=71 v=67
52352 On ch=1 n=81 v=67
52416 Off ch=1 n=81 v=67
52480 On ch=1 n=81 v=67
52544 Off ch=1 n=81 v=67
52608 On ch=1 n=81 v=67
52672 Off ch=1 n=81 v=67
52736 On ch=1 n=79 v=67
52800 Off ch=1 n=79 v=67
52864 On ch=1 n=77 v=67
52928 Off ch=1 n=77 v=67
52992 On ch=1 n=76 v=67
53056 Off ch=1 n=76 v=67
53088 On ch=1 n=72 v=67
53152 Off ch=1 n=72 v=67
53280 On ch=1 n=69 v=67
53344 Off ch=1 n=69 v=67
53376 On ch=1 n=67 v=67
53440 Off ch=1 n=67 v=67
53760 On ch=1 n=76 v=67
53824 Off ch=1 n=76 v=67
53856 On ch=1 n=72 v=67
53920 Off ch=1 n=72 v=67
54048 On ch=1 n=67 v=67
54112 Off ch=1 n=67 v=67
54336 On ch=1 n=68 v=67
54400 Off ch=1 n=68 v=67
54528 On ch=1 n=69 v=67
54592 Off ch=1 n=69 v=67
54624 On ch=1 n=77 v=67
54688 Off ch=1 n=77 v=67
54816 On ch=1 n=77 v=67
54880 Off ch=1 n=77 v=67
54912 On ch=1 n=69 v=67
54976 Off ch=1 n=69 v=67
55296 On ch=1 n=71 v=67
55360 Off ch=1 n=71 v=67
55392 On ch=1 n=77 v=67
55456 Off ch=1 n=77 v=67
55584 On ch=1 n=77 v=67
55648 Off ch=1 n=77 v=67
55680 On ch=1 n=77 v=67
55744 Off ch=1 n=77 v=67
55808 On ch=1 n=76 v=67
55872 Off ch=1 n=76 v=67
55936 On ch=1 n=74 v=67
56000 Off ch=1 n=74 v=67
56064 On ch=1 n=72 v=67
56128 Off ch=1 n=72 v=67
56128 Meta TrkEnd
TrkEnd
MTrk
0 Par ch=2 c=0 v=0
0 PrCh ch=2 p=80
0 On ch=2 n=66 v=67
64 Off ch=2 n=66 v=67
96 On ch=2 n=66 v=67
160 Off ch=2 n=66 v=67
288 On ch=2 n=66 v=67
352 Off ch=2 n=66 v=67
480 On ch=2 n=66 v=67
544 Off ch=2 n=66 v=67
576 On ch=2 n=66 v=67
640 Off ch=2 n=66 v=67
768 On ch=2 n=71 v=67
832 Off ch=2 n=71 v=67
1152 On ch=2 n=67 v=67
1216 Off ch=2 n=67 v=67
1536 On ch=2 n=64 v=67
1600 Off ch=2 n=64 v=67
1824 On ch=2 n=60 v=67
1888 Off ch=2 n=60 v=67
2112 On ch=2 n=55 v=67
2176 Off ch=2 n=55 v=67
2400 On ch=2 n=60 v=67
2464 Off ch=2 n=60 v=67
2592 On ch=2 n=62 v=67
2656 Off ch=2 n=62 v=67
2784 On ch=2 n=61 v=67
2848 Off ch=2 n=61 v=67
2880 On ch=2 n=60 v=67
2944 Off ch=2 n=60 v=67
3072 On ch=2 n=60 v=67
3136 Off ch=2 n=60 v=67
3200 On ch=2 n=67 v=67
3264 Off ch=2 n=67 v=67
3328 On ch=2 n=71 v=67
3392 Off ch=2 n=71 v=67
3456 On ch=2 n=72 v=67
3520 Off ch=2 n=72 v=67
3648 On ch=2 n=69 v=67
3712 Off ch=2 n=69 v=67
3744 On ch=2 n=71 v=67
3808 Off ch=2 n=71 v=67
3936 On ch=2 n=69 v=67
4000 Off ch=2 n=69 v=67
4128 On ch=2 n=64 v=67
4192 Off ch=2 n=64 v=67
4224 On ch=2 n=65 v=67
4288 Off ch=2 n=65 v=67
4320 On ch=2 n=62 v=67
4384 Off ch=2 n=62 v=67
4608 On ch=2 n=64 v=67
4672 Off ch=2 n=64 v=67
4896 On ch=2 n=60 v=67
4960 Off ch=2 n=60 v=67
5184 On ch=2 n=55 v=67
5248 Off ch=2 n=55 v=67
5472 On ch=2 n=60 v=67
5536 Off ch=2 n=60 v=67
5664 On ch=2 n=62 v=67
5728 Off ch=2 n=62 v=67
5856 On ch=2 n=61 v=67
5920 Off ch=2 n=61 v=67
5952 On ch=2 n=60 v=67
6016 Off ch=2 n=60 v=67
6144 On ch=2 n=60 v=67
6208 Off ch=2 n=60 v=67
6272 On ch=2 n=67 v=67
6336 Off ch=2 n=67 v=67
6400 On ch=2 n=71 v=67
6464 Off ch=2 n=71 v=67
6528 On ch=2 n=72 v=67
6592 Off ch=2 n=72 v=67
6720 On ch=2 n=69 v=67
6784 Off ch=2 n=69 v=67
6816 On ch=2 n=71 v=67
6880 Off ch=2 n=71 v=67
7008 On ch=2 n=69 v=67
7072 Off ch=2 n=69 v=67
7200 On ch=2 n=64 v=67
7264 Off ch=2 n=64 v=67
7296 On ch=2 n=65 v=67
7360 Off ch=2 n=65 v=67
7392 On ch=2 n=62 v=67
7456 Off ch=2 n=62 v=67
7872 On ch=2 n=76 v=67
7936 Off ch=2 n=76 v=67
7968 On ch=2 n=75 v=67
8032 Off ch=2 n=75 v=67
8064 On ch=2 n=74 v=67
8128 Off ch=2 n=74 v=67
8160 On ch=2 n=71 v=67
8224 Off ch=2 n=71 v=67
8352 On ch=2 n=72 v=67
8416 Off ch=2 n=72 v=67
8544 On ch=2 n=64 v=67
8608 Off ch=2 n=64 v=67
8640 On ch=2 n=65 v=67
8704 Off ch=2 n=65 v=67
8736 On ch=2 n=67 v=67
8800 Off ch=2 n=67 v=67
8928 On ch=2 n=60 v=67
8992 Off ch=2 n=60 v=67
9024 On ch=2 n=64 v=67
9088 Off ch=2 n=64 v=67
9120 On ch=2 n=65 v=67
9184 Off ch=2 n=65 v=67
9408 On ch=2 n=76 v=67
9472 Off ch=2 n=76 v=67
9504 On ch=2 n=75 v=67
9568 Off ch=2 n=75 v=67
9600 On ch=2 n=74 v=67
9664 Off ch=2 n=74 v=67
9696 On ch=2 n=71 v=67
9760 Off ch=2 n=71 v=67
9888 On ch=2 n=72 v=67
9952 Off ch=2 n=72 v=67
10080 On ch=2 n=77 v=67
10144 Off ch=2 n=77 v=67
10272 On ch=2 n=77 v=67
10336 Off ch=2 n=77 v=67
10368 On ch=2 n=77 v=67
10432 Off ch=2 n=77 v=67
10944 On ch=2 n=76 v=67
11008 Off ch=2 n=76 v=67
11040 On ch=2 n=75 v=67
11104 Off ch=2 n=75 v=67
11136 On ch=2 n=74 v=67
11200 Off ch=2 n=74 v=67
11232 On ch=2 n=71 v=67
11296 Off ch=2 n=71 v=67
11424 On ch=2 n=72 v=67
11488 Off ch=2 n=72 v=67
11616 On ch=2 n=64 v=67
11680 Off ch=2 n=64 v=67
11712 On ch=2 n=65 v=67
11776 Off ch=2 n=65 v=67
11808 On ch=2 n=67 v=67
11872 Off ch=2 n=67 v=67
12000 On ch=2 n=60 v=67
12064 Off ch=2 n=60 v=67
12096 On ch=2 n=64 v=67
12160 Off ch=2 n=64 v=67
12192 On ch=2 n=65 v=67
12256 Off ch=2 n=65 v=67
12480 On ch=2 n=68 v=67
12544 Off ch=2 n=68 v=67
12768 On ch=2 n=65 v=67
12832 Off ch=2 n=65 v=67
13056 On ch=2 n=64 v=67
13120 Off ch=2 n=64 v=67
14016 On ch=2 n=76 v=67
14080 Off ch=2 n=76 v=67
14112 On ch=2 n=75 v=67
14176 Off ch=2 n=75 v=67
14208 On ch=2 n=74 v=67
14272 Off ch=2 n=74 v=67
14304 On ch=2 n=71 v=67
14368 Off ch=2 n=71 v=67
14496 On ch=2 n=72 v=67
14560 Off ch=2 n=72 v=67
14688 On ch=2 n=64 v=67
14752 Off ch=2 n=64 v=67
14784 On ch=2 n=65 v=67
14848 Off ch=2 n=65 v=67
14880 On ch=2 n=67 v=67
14944 Off ch=2 n=67 v=67
15072 On ch=2 n=60 v=67
15136 Off ch=2 n=60 v=67
15168 On ch=2 n=64 v=67
15232 Off ch=2 n=64 v=67
15264 On ch=2 n=65 v=67
15328 Off ch=2 n=65 v=67
15552 On ch=2 n=76 v=67
15616 Off ch=2 n=76 v=67
15648 On ch=2 n=75 v=67
15712 Off ch=2 n=75 v=67
15744 On ch=2 n=74 v=67
15808 Off ch=2 n=74 v=67
15840 On ch=2 n=71 v=67
15904 Off ch=2 n=71 v=67
16032 On ch=2 n=72 v=67
16096 Off ch=2 n=72 v=67
16224 On ch=2 n=77 v=67
16288 Off ch=2 n=77 v=67
16416 On ch=2 n=77 v=67
16480 Off ch=2 n=77 v=67
16512 On ch=2 n=77 v=67
16576 Off ch=2 n=77 v=67
17088 On ch=2 n=76 v=67
17152 Off ch=2 n=76 v=67
17184 On ch=2 n=75 v=67
17248 Off ch=2 n=75 v=67
17280 On ch=2 n=74 v=67
17344 Off ch=2 n=74 v=67
17376 On ch=2 n=71 v=67
17440 Off ch=2 n=71 v=67
17568 On ch=2 n=72 v=67
17632 Off ch=2 n=72 v=67
17760 On ch=2 n=64 v=67
17824 Off ch=2 n=64 v=67
17856 On ch=2 n=65 v=67
17920 Off ch=2 n=65 v=67
17952 On ch=2 n=67 v=67
18016 Off ch=2 n=67 v=67
18144 On ch=2 n=60 v=67
18208 Off ch=2 n=60 v=67
18240 On ch=2 n=64 v=67
18304 Off ch=2 n=64 v=67
18336 On ch=2 n=65 v=67
18400 Off ch=2 n=65 v=67
18624 On ch=2 n=68 v=67
18688 Off ch=2 n=68 v=67
18912 On ch=2 n=65 v=67
18976 Off ch=2 n=65 v=67
19200 On ch=2 n=64 v=67
19264 Off ch=2 n=64 v=67
19968 On ch=2 n=68 v=67
20032 Off ch=2 n=68 v=67
20064 On ch=2 n=68 v=67
20128 Off ch=2 n=68 v=67
20256 On ch=2 n=68 v=67
20320 Off ch=2 n=68 v=67
20448 On ch=2 n=68 v=67
20512 Off ch=2 n=68 v=67
20544 On ch=2 n=70 v=67
20608 Off ch=2 n=70 v=67
20736 On ch=2 n=67 v=67
20800 Off ch=2 n=67 v=67
20832 On ch=2 n=64 v=67
20896 Off ch=2 n=64 v=67
21024 On ch=2 n=64 v=67
21088 Off ch=2 n=64 v=67
21120 On ch=2 n=60 v=67
21184 Off ch=2 n=60 v=67
21504 On ch=2 n=68 v=67
21568 Off ch=2 n=68 v=67
21600 On ch=2 n=68 v=67
21664 Off ch=2 n=68 v=67
21792 On ch=2 n=68 v=67
21856 Off ch=2 n=68 v=67
21984 On ch=2 n=68 v=67
22048 Off ch=2 n=68 v=67
22080 On ch=2 n=70 v=67
22144 Off ch=2 n=70 v=67
22176 On ch=2 n=67 v=67
22240 Off ch=2 n=67 v=67
23040 On ch=2 n=68 v=67
23104 Off ch=2 n=68 v=67
23136 On ch=2 n=68 v=67
23200 Off ch=2 n=68 v=67
23328 On ch=2 n=68 v=67
23392 Off ch=2 n=68 v=67
23520 On ch=2 n=68 v=67
23584 Off ch=2 n=68 v=67
23616 On ch=2 n=70 v=67
23680 Off ch=2 n=70 v=67
23808 On ch=2 n=67 v=67
23872 Off ch=2 n=67 v=67
23904 On ch=2 n=64 v=67
23968 Off ch=2 n=64 v=67
24096 On ch=2 n=64 v=67
24160 Off ch=2 n=64 v=67
24192 On ch=2 n=60 v=67
24256 Off ch=2 n=60 v=67
24576 On ch=2 n=66 v=67
24640 Off ch=2 n=66 v=67
24672 On ch=2 n=66 v=67
24736 Off ch=2 n=66 v=67
24864 On ch=2 n=66 v=67
24928 Off ch=2 n=66 v=67
25056 On ch=2 n=66 v=67
25120 Off ch=2 n=66 v=67
25152 On ch=2 n=66 v=67
25216 Off ch=2 n=66 v=67
25344 On ch=2 n=71 v=67
25408 Off ch=2 n=71 v=67
25728 On ch=2 n=67 v=67
25792 Off ch=2 n=67 v=67
26112 On ch=2 n=64 v=67
26176 Off ch=2 n=64 v=67
26400 On ch=2 n=60 v=67
26464 Off ch=2 n=60 v=67
26688 On ch=2 n=55 v=67
26752 Off ch=2 n=55 v=67
26976 On ch=2 n=60 v=67
27040 Off ch=2 n=60 v=67
27168 On ch=2 n=62 v=67
27232 Off ch=2 n=62 v=67
27360 On ch=2 n=61 v=67
27424 Off ch=2 n=61 v=67
27456 On ch=2 n=60 v=67
27520 Off ch=2 n=60 v=67
27648 On ch=2 n=60 v=67
27712 Off ch=2 n=60 v=67
27776 On ch=2 n=67 v=67
27840 Off ch=2 n=67 v=67
27904 On ch=2 n=71 v=67
27968 Off ch=2 n=71 v=67
28032 On ch=2 n=72 v=67
28096 Off ch=2 n=72 v=67
28224 On ch=2 n=69 v=67
28288 Off ch=2 n=69 v=67
28320 On ch=2 n=71 v=67
28384 Off ch=2 n=71 v=67
28512 On ch=2 n=69 v=67
28576 Off ch=2 n=69 v=67
28704 On ch=2 n=64 v=67
28768 Off ch=2 n=64 v=67
28800 On ch=2 n=65 v=67
28864 Off ch=2 n=65 v=67
28896 On ch=2 n=62 v=67
28960 Off ch=2 n=62 v=67
29184 On ch=2 n=64 v=67
29248 Off ch=2 n=64 v=67
29472 On ch=2 n=60 v=67
29536 Off ch=2 n=60 v=67
29760 On ch=2 n=55 v=67
29824 Off ch=2 n=55 v=67
30048 On ch=2 n=60 v=67
30112 Off ch=2 n=60 v=67
30240 On ch=2 n=62 v=67
30304 Off ch=2 n=62 v=67
30432 On ch=2 n=61 v=67
30496 Off ch=2 n=61 v=67
30528 On ch=2 n=60 v=67
30592 Off ch=2 n=60 v=67
30720 On ch=2 n=60 v=67
30784 Off ch=2 n=60 v=67
30848 On ch=2 n=67 v=67
30912 Off ch=2 n=67 v=67
30976 On ch=2 n=71 v=67
31040 Off ch=2 n=71 v=67
31104 On ch=2 n=72 v=67
31168 Off ch=2 n=72 v=67
31296 On ch=2 n=69 v=67
31360 Off ch=2 n=69 v=67
31392 On ch=2 n=71 v=67
31456 Off ch=2 n=71 v=67
31584 On ch=2 n=69 v=67
31648 Off ch=2 n=69 v=67
31776 On ch=2 n=64 v=67
31840 Off ch=2 n=64 v=67
31872 On ch=2 n=65 v=67
31936 Off ch=2 n=65 v=67
31968 On ch=2 n=62 v=67
32032 Off ch=2 n=62 v=67
32256 On ch=2 n=72 v=67
32320 Off ch=2 n=72 v=67
32352 On ch=2 n=69 v=67
32416 Off ch=2 n=69 v=67
32544 On ch=2 n=64 v=67
32608 Off ch=2 n=64 v=67
32832 On ch=2 n=64 v=67
32896 Off ch=2 n=64 v=67
33024 On ch=2 n=65 v=67
33088 Off ch=2 n=65 v=67
33120 On ch=2 n=72 v=67
33184 Off ch=2 n=72 v=67
33312 On ch=2 n=72 v=67
33376 Off ch=2 n=72 v=67
33408 On ch=2 n=65 v=67
33472 Off ch=2 n=65 v=67
33792 On ch=2 n=67 v=67
33856 Off ch=2 n=67 v=67
33920 On ch=2 n=77 v=67
33984 Off ch=2 n=77 v=67
34048 On ch=2 n=77 v=67
34112 Off ch=2 n=77 v=67
34176 On ch=2 n=77 v=67
34240 Off ch=2 n=77 v=67
34304 On ch=2 n=76 v=67
34368 Off ch=2 n=76 v=67
34432 On ch=2 n=74 v=67
34496 Off ch=2 n=74 v=67
34560 On ch=2 n=72 v=67
34624 Off ch=2 n=72 v=67
34656 On ch=2 n=69 v=67
34720 Off ch=2 n=69 v=67
34848 On ch=2 n=65 v=67
34912 Off ch=2 n=65 v=67
34944 On ch=2 n=64 v=67
35008 Off ch=2 n=64 v=67
35328 On ch=2 n=72 v=67
35392 Off ch=2 n=72 v=67
35424 On ch=2 n=69 v=67
35488 Off ch=2 n=69 v=67
35616 On ch=2 n=64 v=67
35680 Off ch=2 n=64 v=67
35904 On ch=2 n=64 v=67
35968 Off ch=2 n=64 v=67
36096 On ch=2 n=65 v=67
36160 Off ch=2 n=65 v=67
36192 On ch=2 n=72 v=67
36256 Off ch=2 n=72 v=67
36384 On ch=2 n=72 v=67
36448 Off ch=2 n=72 v=67
36480 On ch=2 n=65 v=67
36544 Off ch=2 n=65 v=67
36864 On ch=2 n=67 v=67
36928 Off ch=2 n=67 v=67
36960 On ch=2 n=74 v=67
37024 Off ch=2 n=74 v=67
37152 On ch=2 n=74 v=67
37216 Off ch=2 n=74 v=67
37248 On ch=2 n=74 v=67
37312 Off ch=2 n=74 v=67
37376 On ch=2 n=72 v=67
37440 Off ch=2 n=72 v=67
37504 On ch=2 n=71 v=67
37568 Off ch=2 n=71 v=67
37632 On ch=2 n=67 v=67
37696 Off ch=2 n=67 v=67
37728 On ch=2 n=64 v=67
37792 Off ch=2 n=64 v=67
37920 On ch=2 n=64 v=67
37984 Off ch=2 n=64 v=67
38016 On ch=2 n=60 v=67
38080 Off ch=2 n=60 v=67
38400 On ch=2 n=72 v=67
38464 Off ch=2 n=72 v=67
38496 On ch=2 n=69 v=67
38560 Off ch=2 n=69 v=67
38688 On ch=2 n=64 v=67
38752 Off ch=2 n=64 v=67
38976 On ch=2 n=64 v=67
39040 Off ch=2 n=64 v=67
39168 On ch=2 n=65 v=67
39232 Off ch=2 n=65 v=67
39264 On ch=2 n=72 v=67
39328 Off ch=2 n=72 v=67
39456 On ch=2 n=72 v=67
39520 Off ch=2 n=72 v=67
39552 On ch=2 n=65 v=67
39616 Off ch=2 n=65 v=67
39936 On ch=2 n=67 v=67
40000 Off ch=2 n=67 v=67
40064 On ch=2 n=77 v=67
40128 Off ch=2 n=77 v=67
40192 On ch=2 n=77 v=67
40256 Off ch=2 n=77 v=67
40320 On ch=2 n=77 v=67
40384 Off ch=2 n=77 v=67
40448 On ch=2 n=76 v=67
40512 Off ch=2 n=76 v=67
40576 On ch=2 n=74 v=67
40640 Off ch=2 n=74 v=67
40704 On ch=2 n=72 v=67
40768 Off ch=2 n=72 v=67
40800 On ch=2 n=69 v=67
40864 Off ch=2 n=69 v=67
40992 On ch=2 n=65 v=67
41056 Off ch=2 n=65 v=67
41088 On ch=2 n=64 v=67
41152 Off ch=2 n=64 v=67
41472 On ch=2 n=72 v=67
41536 Off ch=2 n=72 v=67
41568 On ch=2 n=69 v=67
41632 Off ch=2 n=69 v=67
41760 On ch=2 n=64 v=67
41824 Off ch=2 n=64 v=67
42048 On ch=2 n=64 v=67
42112 Off ch=2 n=64 v=67
42240 On ch=2 n=65 v=67
42304 Off ch=2 n=65 v=67
42336 On ch=2 n=72 v=67
42400 Off ch=2 n=72 v=67
42528 On ch=2 n=72 v=67
42592 Off ch=2 n=72 v=67
42624 On ch=2 n=65 v=67
42688 Off ch=2 n=65 v=67
43008 On ch=2 n=67 v=67
43072 Off ch=2 n=67 v=67
43104 On ch=2 n=74 v=67
43168 Off ch=2 n=74 v=67
43296 On ch=2 n=74 v=67
43360 Off ch=2 n=74 v=67
43392 On ch=2 n=74 v=67
43456 Off ch=2 n=74 v=67
43520 On ch=2 n=72 v=67
43584 Off ch=2 n=72 v=67
43648 On ch=2 n=71 v=67
43712 Off ch=2 n=71 v=67
43776 On ch=2 n=67 v=67
43840 Off ch=2 n=67 v=67
43872 On ch=2 n=64 v=67
43936 Off ch=2 n=64 v=67
44064 On ch=2 n=64 v=67
44128 Off ch=2 n=64 v=67
44160 On ch=2 n=60 v=67
44224 Off ch=2 n=60 v=67
44544 On ch=2 n=68 v=67
44608 Off ch=2 n=68 v=67
44640 On ch=2 n=68 v=67
44704 Off ch=2 n=68 v=67
44832 On ch=2 n=68 v=67
44896 Off ch=2 n=68 v=67
45024 On ch=2 n=68 v=67
45088 Off ch=2 n=68 v=67
45120 On ch=2 n=70 v=67
45184 Off ch=2 n=70 v=67
45312 On ch=2 n=67 v=67
45376 Off ch=2 n=67 v=67
45408 On ch=2 n=64 v=67
45472 Off ch=2 n=64 v=67
45600 On ch=2 n=64 v=67
45664 Off ch=2 n=64 v=67
45696 On ch=2 n=60 v=67
45760 Off ch=2 n=60 v=67
46080 On ch=2 n=68 v=67
46144 Off ch=2 n=68 v=67
46176 On ch=2 n=68 v=67
46240 Off ch=2 n=68 v=67
46368 On ch=2 n=68 v=67
46432 Off ch=2 n=68 v=67
46560 On ch=2 n=68 v=67
46624 Off ch=2 n=68 v=67
46656 On ch=2 n=70 v=67
46720 Off ch=2 n=70 v=67
46752 On ch=2 n=67 v=67
46816 Off ch=2 n=67 v=67
47616 On ch=2 n=68 v=67
47680 Off ch=2 n=68 v=67
47712 On ch=2 n=68 v=67
47776 Off ch=2 n=68 v=67
47904 On ch=2 n=68 v=67
47968 Off ch=2 n=68 v=67
48096 On ch=2 n=68 v=67
48160 Off ch=2 n=68 v=67
48192 On ch=2 n=70 v=67
48256 Off ch=2 n=70 v=67
48384 On ch=2 n=67 v=67
48448 Off ch=2 n=67 v=67
48480 On ch=2 n=64 v=67
48544 Off ch=2 n=64 v=67
48672 On ch=2 n=64 v=67
48736 Off ch=2 n=64 v=67
48768 On ch=2 n=60 v=67
48832 Off ch=2 n=60 v=67
49152 On ch=2 n=66 v=67
49216 Off ch=2 n=66 v=67
49248 On ch=2 n=66 v=67
49312 Off ch=2 n=66 v=67
49440 On ch=2 n=66 v=67
49504 Off ch=2 n=66 v=67
49632 On ch=2 n=66 v=67
49696 Off ch=2 n=66 v=67
49728 On ch=2 n=66 v=67
49792 Off ch=2 n=66 v=67
49920 On ch=2 n=71 v=67
49984 Off ch=2 n=71 v=67
50304 On ch=2 n=67 v=67
50368 Off ch=2 n=67 v=67
50688 On ch=2 n=72 v=67
50752 Off ch=2 n=72 v=67
50784 On ch=2 n=69 v=67
50848 Off ch=2 n=69 v=67
50976 On ch=2 n=64 v=67
51040 Off ch=2 n=64 v=67
51264 On ch=2 n=64 v=67
51328 Off ch=2 n=64 v=67
51456 On ch=2 n=65 v=67
51520 Off ch=2 n=65 v=67
51552 On ch=2 n=72 v=67
51616 Off ch=2 n=72 v=67
51744 On ch=2 n=72 v=67
51808 Off ch=2 n=72 v=67
51840 On ch=2 n=65 v=67
51904 Off ch=2 n=65 v=67
52224 On ch=2 n=67 v=67
52288 Off ch=2 n=67 v=67
52352 On ch=2 n=77 v=67
52416 Off ch=2 n=77 v=67
52480 On ch=2 n=77 v=67
52544 Off ch=2 n=77 v=67
52608 On ch=2 n=77 v=67
52672 Off ch=2 n=77 v=67
52736 On ch=2 n=76 v=67
52800 Off ch=2 n=76 v=67
52864 On ch=2 n=74 v=67
52928 Off ch=2 n=74 v=67
52992 On ch=2 n=72 v=67
53056 Off ch=2 n=72 v=67
53088 On ch=2 n=69 v=67
53152 Off ch=2 n=69 v=67
53280 On ch=2 n=65 v=67
53344 Off ch=2 n=65 v=67
53376 On ch=2 n=64 v=67
53440 Off ch=2 n=64 v=67
53760 On ch=2 n=72 v=67
53824 Off ch=2 n=72 v=67
53856 On ch=2 n=69 v=67
53920 Off ch=2 n=69 v=67
54048 On ch=2 n=64 v=67
54112 Off ch=2 n=64 v=67
54336 On ch=2 n=64 v=67
54400 Off ch=2 n=64 v=67
54528 On ch=2 n=65 v=67
54592 Off ch=2 n=65 v=67
54624 On ch=2 n=72 v=67
54688 Off ch=2 n=72 v=67
54816 On ch=2 n=72 v=67
54880 Off ch=2 n=72 v=67
54912 On ch=2 n=65 v=67
54976 Off ch=2 n=65 v=67
55296 On ch=2 n=67 v=67
55360 Off ch=2 n=67 v=67
55392 On ch=2 n=74 v=67
55456 Off ch=2 n=74 v=67
55584 On ch=2 n=74 v=67
55648 Off ch=2 n=74 v=67
55680 On ch=2 n=74 v=67
55744 Off ch=2 n=74 v=67
55808 On ch=2 n=72 v=67
55872 Off ch=2 n=72 v=67
55936 On ch=2 n=71 v=67
56000 Off ch=2 n=71 v=67
56064 On ch=2 n=67 v=67
56128 Off ch=2 n=67 v=67
56160 On ch=2 n=64 v=67
56224 Off ch=2 n=64 v=67
56352 On ch=2 n=64 v=67
56416 Off ch=2 n=64 v=67
56448 On ch=2 n=60 v=67
56512 Off ch=2 n=60 v=67
56512 Meta TrkEnd
TrkEnd
MTrk
0 Par ch=3 c=0 v=0
0 PrCh ch=3 p=26
0 On ch=3 n=50 v=73
64 Off ch=3 n=50 v=73
96 On ch=3 n=50 v=73
160 Off ch=3 n=50 v=73
288 On ch=3 n=50 v=73
352 Off ch=3 n=50 v=73
480 On ch=3 n=50 v=73
544 Off ch=3 n=50 v=73
576 On ch=3 n=50 v=73
640 Off ch=3 n=50 v=73
768 On ch=3 n=67 v=73
832 Off ch=3 n=67 v=73
1152 On ch=3 n=55 v=73
1216 Off ch=3 n=55 v=73
1536 On ch=3 n=55 v=73
1600 Off ch=3 n=55 v=73
1824 On ch=3 n=52 v=73
1888 Off ch=3 n=52 v=73
2112 On ch=3 n=48 v=73
2176 Off ch=3 n=48 v=73
2400 On ch=3 n=53 v=73
2464 Off ch=3 n=53 v=73
2592 On ch=3 n=55 v=73
2656 Off ch=3 n=55 v=73
2784 On ch=3 n=54 v=73
2848 Off ch=3 n=54 v=73
2880 On ch=3 n=53 v=73
2944 Off ch=3 n=53 v=73
3072 On ch=3 n=52 v=73
3136 Off ch=3 n=52 v=73
3200 On ch=3 n=60 v=73
3264 Off ch=3 n=60 v=73
3328 On ch=3 n=64 v=73
3392 Off ch=3 n=64 v=73
3456 On ch=3 n=65 v=73
3520 Off ch=3 n=65 v=73
3648 On ch=3 n=62 v=73
3712 Off ch=3 n=62 v=73
3744 On ch=3 n=64 v=73
3808 Off ch=3 n=64 v=73
3936 On ch=3 n=60 v=73
4000 Off ch=3 n=60 v=73
4128 On ch=3 n=57 v=73
4192 Off ch=3 n=57 v=73
4224 On ch=3 n=59 v=73
4288 Off ch=3 n=59 v=73
4320 On ch=3 n=55 v=73
4384 Off ch=3 n=55 v=73
4608 On ch=3 n=55 v=73
4672 Off ch=3 n=55 v=73
4896 On ch=3 n=52 v=73
4960 Off ch=3 n=52 v=73
5184 On ch=3 n=48 v=73
5248 Off ch=3 n=48 v=73
5472 On ch=3 n=53 v=73
5536 Off ch=3 n=53 v=73
5664 On ch=3 n=55 v=73
5728 Off ch=3 n=55 v=73
5856 On ch=3 n=54 v=73
5920 Off ch=3 n=54 v=73
5952 On ch=3 n=53 v=73
6016 Off ch=3 n=53 v=73
6144 On ch=3 n=52 v=73
6208 Off ch=3 n=52 v=73
6272 On ch=3 n=60 v=73
6336 Off ch=3 n=60 v=73
6400 On ch=3 n=64 v=73
6464 Off ch=3 n=64 v=73
6528 On ch=3 n=65 v=73
6592 Off ch=3 n=65 v=73
6720 On ch=3 n=62 v=73
6784 Off ch=3 n=62 v=73
6816 On ch=3 n=64 v=73
6880 Off ch=3 n=64 v=73
7008 On ch=3 n=60 v=73
7072 Off ch=3 n=60 v=73
7200 On ch=3 n=57 v=73
7264 Off ch=3 n=57 v=73
7296 On ch=3 n=59 v=73
7360 Off ch=3 n=59 v=73
7392 On ch=3 n=55 v=73
7456 Off ch=3 n=55 v=73
7680 On ch=3 n=48 v=73
7744 Off ch=3 n=48 v=73
7968 On ch=3 n=55 v=73
8032 Off ch=3 n=55 v=73
8256 On ch=3 n=60 v=73
8320 Off ch=3 n=60 v=73
8448 On ch=3 n=53 v=73
8512 Off ch=3 n=53 v=73
8736 On ch=3 n=60 v=73
8800 Off ch=3 n=60 v=73
8832 On ch=3 n=60 v=73
8896 Off ch=3 n=60 v=73
9024 On ch=3 n=53 v=73
9088 Off ch=3 n=53 v=73
9216 On ch=3 n=48 v=73
9280 Off ch=3 n=48 v=73
9504 On ch=3 n=52 v=73
9568 Off ch=3 n=52 v=73
9792 On ch=3 n=55 v=73
9856 Off ch=3 n=55 v=73
9888 On ch=3 n=60 v=73
9952 Off ch=3 n=60 v=73
10080 On ch=3 n=79 v=73
10144 Off ch=3 n=79 v=73
10272 On ch=3 n=79 v=73
10336 Off ch=3 n=79 v=73
10368 On ch=3 n=79 v=73
10432 Off ch=3 n=79 v=73
10560 On ch=3 n=55 v=73
10624 Off ch=3 n=55 v=73
10752 On ch=3 n=48 v=73
10816 Off ch=3 n=48 v=73
11040 On ch=3 n=55 v=73
11104 Off ch=3 n=55 v=73
11328 On ch=3 n=60 v=73
11392 Off ch=3 n=60 v=73
11520 On ch=3 n=53 v=73
11584 Off ch=3 n=53 v=73
11808 On ch=3 n=60 v=73
11872 Off ch=3 n=60 v=73
11904 On ch=3 n=60 v=73
11968 Off ch=3 n=60 v=73
12096 On ch=3 n=53 v=73
12160 Off ch=3 n=53 v=73
12288 On ch=3 n=48 v=73
12352 Off ch=3 n=48 v=73
12480 On ch=3 n=56 v=73
12544 Off ch=3 n=56 v=73
12768 On ch=3 n=58 v=73
12832 Off ch=3 n=58 v=73
13056 On ch=3 n=60 v=73
13120 Off ch=3 n=60 v=73
13344 On ch=3 n=55 v=73
13408 Off ch=3 n=55 v=73
13440 On ch=3 n=55 v=73
13504 Off ch=3 n=55 v=73
13632 On ch=3 n=48 v=73
13696 Off ch=3 n=48 v=73
13824 On ch=3 n=48 v=73
13888 Off ch=3 n=48 v=73
14112 On ch=3 n=55 v=73
14176 Off ch=3 n=55 v=73
14400 On ch=3 n=60 v=73
14464 Off ch=3 n=60 v=73
14592 On ch=3 n=53 v=73
14656 Off ch=3 n=53 v=73
14880 On ch=3 n=60 v=73
14944 Off ch=3 n=60 v=73
14976 On ch=3 n=60 v=73
15040 Off ch=3 n=60 v=73
15168 On ch=3 n=53 v=73
15232 Off ch=3 n=53 v=73
15360 On ch=3 n=48 v=73
15424 Off ch=3 n=48 v=73
15648 On ch=3 n=52 v=73
15712 Off ch=3 n=52 v=73
15936 On ch=3 n=55 v=73
16000 Off ch=3 n=55 v=73
16032 On ch=3 n=60 v=73
16096 Off ch=3 n=60 v=73
16224 On ch=3 n=79 v=73
16288 Off ch=3 n=79 v=73
16416 On ch=3 n=79 v=73
16480 Off ch=3 n=79 v=73
16512 On ch=3 n=79 v=73
16576 Off ch=3 n=79 v=73
16704 On ch=3 n=55 v=73
16768 Off ch=3 n=55 v=73
16896 On ch=3 n=48 v=73
16960 Off ch=3 n=48 v=73
17184 On ch=3 n=55 v=73
17248 Off ch=3 n=55 v=73
17472 On ch=3 n=60 v=73
17536 Off ch=3 n=60 v=73
17664 On ch=3 n=53 v=73
17728 Off ch=3 n=53 v=73
17952 On ch=3 n=60 v=73
18016 Off ch=3 n=60 v=73
18048 On ch=3 n=60 v=73
18112 Off ch=3 n=60 v=73
18240 On ch=3 n=53 v=73
18304 Off ch=3 n=53 v=73
18432 On ch=3 n=48 v=73
18496 Off ch=3 n=48 v=73
18624 On ch=3 n=56 v=73
18688 Off ch=3 n=56 v=73
18912 On ch=3 n=58 v=73
18976 Off ch=3 n=58 v=73
19200 On ch=3 n=60 v=73
19264 Off ch=3 n=60 v=73
19488 On ch=3 n=55 v=73
19552 Off ch=3 n=55 v=73
19584 On ch=3 n=55 v=73
19648 Off ch=3 n=55 v=73
19776 On ch=3 n=48 v=73
19840 Off ch=3 n=48 v=73
19968 On ch=3 n=44 v=73
20032 Off ch=3 n=44 v=73
20256 On ch=3 n=51 v=73
20320 Off ch=3 n=51 v=73
20544 On ch=3 n=56 v=73
20608 Off ch=3 n=56 v=73
20736 On ch=3 n=55 v=73
20800 Off ch=3 n=55 v=73
21024 On ch=3 n=48 v=73
21088 Off ch=3 n=48 v=73
21312 On ch=3 n=43 v=73
21376 Off ch=3 n=43 v=73
21504 On ch=3 n=44 v=73
21568 Off ch=3 n=44 v=73
21792 On ch=3 n=51 v=73
21856 Off ch=3 n=51 v=73
22080 On ch=3 n=56 v=73
22144 Off ch=3 n=56 v=73
22272 On ch=3 n=55 v=73
22336 Off ch=3 n=55 v=73
22560 On ch=3 n=48 v=73
22624 Off ch=3 n=48 v=73
22848 On ch=3 n=43 v=73
22912 Off ch=3 n=43 v=73
23040 On ch=3 n=44 v=73
23104 Off ch=3 n=44 v=73
23328 On ch=3 n=51 v=73
23392 Off ch=3 n=51 v=73
23616 On ch=3 n=56 v=73
23680 Off ch=3 n=56 v=73
23808 On ch=3 n=55 v=73
23872 Off ch=3 n=55 v=73
24096 On ch=3 n=48 v=73
24160 Off ch=3 n=48 v=73
24384 On ch=3 n=43 v=73
24448 Off ch=3 n=43 v=73
24576 On ch=3 n=50 v=73
24640 Off ch=3 n=50 v=73
24672 On ch=3 n=50 v=73
24736 Off ch=3 n=50 v=73
24864 On ch=3 n=50 v=73
24928 Off ch=3 n=50 v=73
25056 On ch=3 n=50 v=73
25120 Off ch=3 n=50 v=73
25152 On ch=3 n=50 v=73
25216 Off ch=3 n=50 v=73
25344 On ch=3 n=67 v=73
25408 Off ch=3 n=67 v=73
25728 On ch=3 n=55 v=73
25792 Off ch=3 n=55 v=73
26112 On ch=3 n=55 v=73
26176 Off ch=3 n=55 v=73
26400 On ch=3 n=52 v=73
26464 Off ch=3 n=52 v=73
26688 On ch=3 n=48 v=73
26752 Off ch=3 n=48 v=73
26976 On ch=3 n=53 v=73
27040 Off ch=3 n=53 v=73
27168 On ch=3 n=55 v=73
27232 Off ch=3 n=55 v=73
27360 On ch=3 n=54 v=73
27424 Off ch=3 n=54 v=73
27456 On ch=3 n=53 v=73
27520 Off ch=3 n=53 v=73
27648 On ch=3 n=52 v=73
27712 Off ch=3 n=52 v=73
27776 On ch=3 n=60 v=73
27840 Off ch=3 n=60 v=73
27904 On ch=3 n=64 v=73
27968 Off ch=3 n=64 v=73
28032 On ch=3 n=65 v=73
28096 Off ch=3 n=65 v=73
28224 On ch=3 n=62 v=73
28288 Off ch=3 n=62 v=73
28320 On ch=3 n=64 v=73
28384 Off ch=3 n=64 v=73
28512 On ch=3 n=60 v=73
28576 Off ch=3 n=60 v=73
28704 On ch=3 n=57 v=73
28768 Off ch=3 n=57 v=73
28800 On ch=3 n=59 v=73
28864 Off ch=3 n=59 v=73
28896 On ch=3 n=55 v=73
28960 Off ch=3 n=55 v=73
29184 On ch=3 n=55 v=73
29248 Off ch=3 n=55 v=73
29472 On ch=3 n=52 v=73
29536 Off ch=3 n=52 v=73
29760 On ch=3 n=48 v=73
29824 Off ch=3 n=48 v=73
30048 On ch=3 n=53 v=73
30112 Off ch=3 n=53 v=73
30240 On ch=3 n=55 v=73
30304 Off ch=3 n=55 v=73
30432 On ch=3 n=54 v=73
30496 Off ch=3 n=54 v=73
30528 On ch=3 n=53 v=73
30592 Off ch=3 n=53 v=73
30720 On ch=3 n=52 v=73
30784 Off ch=3 n=52 v=73
30848 On ch=3 n=60 v=73
30912 Off ch=3 n=60 v=73
30976 On ch=3 n=64 v=73
31040 Off ch=3 n=64 v=73
31104 On ch=3 n=65 v=73
31168 Off ch=3 n=65 v=73
31296 On ch=3 n=62 v=73
31360 Off ch=3 n=62 v=73
31392 On ch=3 n=64 v=73
31456 Off ch=3 n=64 v=73
31584 On ch=3 n=60 v=73
31648 Off ch=3 n=60 v=73
31776 On ch=3 n=57 v=73
31840 Off ch=3 n=57 v=73
31872 On ch=3 n=59 v=73
31936 Off ch=3 n=59 v=73
31968 On ch=3 n=55 v=73
32032 Off ch=3 n=55 v=73
32256 On ch=3 n=48 v=73
32320 Off ch=3 n=48 v=73
32544 On ch=3 n=54 v=73
32608 Off ch=3 n=54 v=73
32640 On ch=3 n=55 v=73
32704 Off ch=3 n=55 v=73
32832 On ch=3 n=60 v=73
32896 Off ch=3 n=60 v=73
33024 On ch=3 n=53 v=73
33088 Off ch=3 n=53 v=73
33216 On ch=3 n=53 v=73
33280 Off ch=3 n=53 v=73
33408 On ch=3 n=60 v=73
33472 Off ch=3 n=60 v=73
33504 On ch=3 n=60 v=73
33568 Off ch=3 n=60 v=73
33600 On ch=3 n=53 v=73
33664 Off ch=3 n=53 v=73
33792 On ch=3 n=50 v=73
33856 Off ch=3 n=50 v=73
34080 On ch=3 n=53 v=73
34144 Off ch=3 n=53 v=73
34176 On ch=3 n=55 v=73
34240 Off ch=3 n=55 v=73
34368 On ch=3 n=59 v=73
34432 Off ch=3 n=59 v=73
34560 On ch=3 n=55 v=73
34624 Off ch=3 n=55 v=73
34752 On ch=3 n=55 v=73
34816 Off ch=3 n=55 v=73
34944 On ch=3 n=60 v=73
35008 Off ch=3 n=60 v=73
35040 On ch=3 n=60 v=73
35104 Off ch=3 n=60 v=73
35136 On ch=3 n=55 v=73
35200 Off ch=3 n=55 v=73
35328 On ch=3 n=48 v=73
35392 Off ch=3 n=48 v=73
35616 On ch=3 n=54 v=73
35680 Off ch=3 n=54 v=73
35712 On ch=3 n=55 v=73
35776 Off ch=3 n=55 v=73
35904 On ch=3 n=60 v=73
35968 Off ch=3 n=60 v=73
36096 On ch=3 n=53 v=73
36160 Off ch=3 n=53 v=73
36288 On ch=3 n=53 v=73
36352 Off ch=3 n=53 v=73
36480 On ch=3 n=60 v=73
36544 Off ch=3 n=60 v=73
36576 On ch=3 n=60 v=73
36640 Off ch=3 n=60 v=73
36672 On ch=3 n=53 v=73
36736 Off ch=3 n=53 v=73
36864 On ch=3 n=55 v=73
36928 Off ch=3 n=55 v=73
36960 On ch=3 n=55 v=73
37024 Off ch=3 n=55 v=73
37152 On ch=3 n=55 v=73
37216 Off ch=3 n=55 v=73
37248 On ch=3 n=55 v=73
37312 Off ch=3 n=55 v=73
37376 On ch=3 n=57 v=73
37440 Off ch=3 n=57 v=73
37504 On ch=3 n=59 v=73
37568 Off ch=3 n=59 v=73
37632 On ch=3 n=60 v=73
37696 Off ch=3 n=60 v=73
37824 On ch=3 n=55 v=73
37888 Off ch=3 n=55 v=73
38016 On ch=3 n=48 v=73
38080 Off ch=3 n=48 v=73
38400 On ch=3 n=48 v=73
38464 Off ch=3 n=48 v=73
38688 On ch=3 n=54 v=73
38752 Off ch=3 n=54 v=73
38784 On ch=3 n=55 v=73
38848 Off ch=3 n=55 v=73
38976 On ch=3 n=60 v=73
39040 Off ch=3 n=60 v=73
39168 On ch=3 n=53 v=73
39232 Off ch=3 n=53 v=73
39360 On ch=3 n=53 v=73
39424 Off ch=3 n=53 v=73
39552 On ch=3 n=60 v=73
39616 Off ch=3 n=60 v=73
39648 On ch=3 n=60 v=73
39712 Off ch=3 n=60 v=73
39744 On ch=3 n=53 v=73
39808 Off ch=3 n=53 v=73
39936 On ch=3 n=50 v=73
40000 Off ch=3 n=50 v=73
40224 On ch=3 n=53 v=73
40288 Off ch=3 n=53 v=73
40320 On ch=3 n=55 v=73
40384 Off ch=3 n=55 v=73
40512 On ch=3 n=59 v=73
40576 Off ch=3 n=59 v=73
40704 On ch=3 n=55 v=73
40768 Off ch=3 n=55 v=73
40896 On ch=3 n=55 v=73
40960 Off ch=3 n=55 v=73
41088 On ch=3 n=60 v=73
41152 Off ch=3 n=60 v=73
41184 On ch=3 n=60 v=73
41248 Off ch=3 n=60 v=73
41280 On ch=3 n=55 v=73
41344 Off ch=3 n=55 v=73
41472 On ch=3 n=48 v=73
41536 Off ch=3 n=48 v=73
41760 On ch=3 n=54 v=73
41824 Off ch=3 n=54 v=73
41856 On ch=3 n=55 v=73
41920 Off ch=3 n=55 v=73
42048 On ch=3 n=60 v=73
42112 Off ch=3 n=60 v=73
42240 On ch=3 n=53 v=73
42304 Off ch=3 n=53 v=73
42432 On ch=3 n=53 v=73
42496 Off ch=3 n=53 v=73
42624 On ch=3 n=60 v=73
42688 Off ch=3 n=60 v=73
42720 On ch=3 n=60 v=73
42784 Off ch=3 n=60 v=73
42816 On ch=3 n=53 v=73
42880 Off ch=3 n=53 v=73
43008 On ch=3 n=55 v=73
43072 Off ch=3 n=55 v=73
43104 On ch=3 n=55 v=73
43168 Off ch=3 n=55 v=73
43296 On ch=3 n=55 v=73
43360 Off ch=3 n=55 v=73
43392 On ch=3 n=55 v=73
43456 Off ch=3 n=55 v=73
43520 On ch=3 n=57 v=73
43584 Off ch=3 n=57 v=73
43648 On ch=3 n=59 v=73
43712 Off ch=3 n=59 v=73
43776 On ch=3 n=60 v=73
43840 Off ch=3 n=60 v=73
43968 On ch=3 n=55 v=73
44032 Off ch=3 n=55 v=73
44160 On ch=3 n=48 v=73
44224 Off ch=3 n=48 v=73
44544 On ch=3 n=44 v=73
44608 Off ch=3 n=44 v=73
44832 On ch=3 n=51 v=73
44896 Off ch=3 n=51 v=73
45120 On ch=3 n=56 v=73
45184 Off ch=3 n=56 v=73
45312 On ch=3 n=55 v=73
45376 Off ch=3 n=55 v=73
45600 On ch=3 n=48 v=73
45664 Off ch=3 n=48 v=73
45888 On ch=3 n=43 v=73
45952 Off ch=3 n=43 v=73
46080 On ch=3 n=44 v=73
46144 Off ch=3 n=44 v=73
46368 On ch=3 n=51 v=73
46432 Off ch=3 n=51 v=73
46656 On ch=3 n=56 v=73
46720 Off ch=3 n=56 v=73
46848 On ch=3 n=55 v=73
46912 Off ch=3 n=55 v=73
47136 On ch=3 n=48 v=73
47200 Off ch=3 n=48 v=73
47424 On ch=3 n=43 v=73
47488 Off ch=3 n=43 v=73
47616 On ch=3 n=44 v=73
47680 Off ch=3 n=44 v=73
47904 On ch=3 n=51 v=73
47968 Off ch=3 n=51 v=73
48192 On ch=3 n=56 v=73
48256 Off ch=3 n=56 v=73
48384 On ch=3 n=55 v=73
48448 Off ch=3 n=55 v=73
48672 On ch=3 n=48 v=73
48736 Off ch=3 n=48 v=73
48960 On ch=3 n=43 v=73
49024 Off ch=3 n=43 v=73
49152 On ch=3 n=50 v=73
49216 Off ch=3 n=50 v=73
49248 On ch=3 n=50 v=73
49312 Off ch=3 n=50 v=73
49440 On ch=3 n=50 v=73
49504 Off ch=3 n=50 v=73
49632 On ch=3 n=50 v=73
49696 Off ch=3 n=50 v=73
49728 On ch=3 n=50 v=73
49792 Off ch=3 n=50 v=73
49920 On ch=3 n=67 v=73
49984 Off ch=3 n=67 v=73
50304 On ch=3 n=55 v=73
50368 Off ch=3 n=55 v=73
50688 On ch=3 n=48 v=73
50752 Off ch=3 n=48 v=73
50976 On ch=3 n=54 v=73
51040 Off ch=3 n=54 v=73
51072 On ch=3 n=55 v=73
51136 Off ch=3 n=55 v=73
51264 On ch=3 n=60 v=73
51328 Off ch=3 n=60 v=73
51456 On ch=3 n=53 v=73
51520 Off ch=3 n=53 v=73
51648 On ch=3 n=53 v=73
51712 Off ch=3 n=53 v=73
51840 On ch=3 n=60 v=73
51904 Off ch=3 n=60 v=73
51936 On ch=3 n=60 v=73
52000 Off ch=3 n=60 v=73
52032 On ch=3 n=53 v=73
52096 Off ch=3 n=53 v=73
52224 On ch=3 n=50 v=73
52288 Off ch=3 n=50 v=73
52512 On ch=3 n=53 v=73
52576 Off ch=3 n=53 v=73
52608 On ch=3 n=55 v=73
52672 Off ch=3 n=55 v=73
52800 On ch=3 n=59 v=73
52864 Off ch=3 n=59 v=73
52992 On ch=3 n=55 v=73
53056 Off ch=3 n=55 v=73
53184 On ch=3 n=55 v=73
53248 Off ch=3 n=55 v=73
53376 On ch=3 n=60 v=73
53440 Off ch=3 n=60 v=73
53472 On ch=3 n=60 v=73
53536 Off ch=3 n=60 v=73
53568 On ch=3 n=55 v=73
53632 Off ch=3 n=55 v=73
53760 On ch=3 n=48 v=73
53824 Off ch=3 n=48 v=73
54048 On ch=3 n=54 v=73
54112 Off ch=3 n=54 v=73
54144 On ch=3 n=55 v=73
54208 Off ch=3 n=55 v=73
54336 On ch=3 n=60 v=73
54400 Off ch=3 n=60 v=73
54528 On ch=3 n=53 v=73
54592 Off ch=3 n=53 v=73
54720 On ch=3 n=53 v=73
54784 Off ch=3 n=53 v=73
54912 On ch=3 n=60 v=73
54976 Off ch=3 n=60 v=73
55008 On ch=3 n=60 v=73
55072 Off ch=3 n=60 v=73
55104 On ch=3 n=53 v=73
55168 Off ch=3 n=53 v=73
55296 On ch=3 n=55 v=73
55360 Off ch=3 n=55 v=73
55392 On ch=3 n=55 v=73
55456 Off ch=3 n=55 v=73
55584 On ch=3 n=55 v=73
55648 Off ch=3 n=55 v=73
55680 On ch=3 n=55 v=73
55744 Off ch=3 n=55 v=73
55808 On ch=3 n=57 v=73
55872 Off ch=3 n=57 v=73
55936 On ch=3 n=59 v=73
56000 Off ch=3 n=59 v=73
56064 On ch=3 n=60 v=73
56128 Off ch=3 n=60 v=73
56256 On ch=3 n=55 v=73
56320 Off ch=3 n=55 v=73
56448 On ch=3 n=48 v=73
56512 Off ch=3 n=48 v=73
56512 Meta TrkEnd
TrkEnd
MTrk
0 Par ch=4 c=0 v=0
0 PrCh ch=4 p=127
0 On ch=4 n=67 v=23
128 Off ch=4 n=67 v=23
192 On ch=4 n=67 v=23
256 Off ch=4 n=67 v=23
288 On ch=4 n=67 v=23
416 Off ch=4 n=67 v=23
480 On ch=4 n=67 v=23
544 Off ch=4 n=67 v=23
576 On ch=4 n=67 v=23
704 Off ch=4 n=67 v=23
768 On ch=4 n=67 v=23
896 Off ch=4 n=67 v=23
1056 On ch=4 n=67 v=23
1184 Off ch=4 n=67 v=23
1248 On ch=4 n=67 v=23
1312 Off ch=4 n=67 v=23
1344 On ch=4 n=67 v=23
1408 Off ch=4 n=67 v=23
1440 On ch=4 n=67 v=23
1504 Off ch=4 n=67 v=23
1536 On ch=4 n=67 v=23
1600 Off ch=4 n=67 v=23
1728 On ch=4 n=67 v=23
1792 Off ch=4 n=67 v=23
1856 On ch=4 n=67 v=23
1920 Off ch=4 n=67 v=23
1920 On ch=4 n=67 v=23
2048 Off ch=4 n=67 v=23
2112 On ch=4 n=67 v=23
2176 Off ch=4 n=67 v=23
2240 On ch=4 n=67 v=23
2304 Off ch=4 n=67 v=23
2304 On ch=4 n=67 v=23
2368 Off ch=4 n=67 v=23
2496 On ch=4 n=67 v=23
2560 Off ch=4 n=67 v=23
2624 On ch=4 n=67 v=23
2688 Off ch=4 n=67 v=23
2688 On ch=4 n=67 v=23
2816 Off ch=4 n=67 v=23
2880 On ch=4 n=67 v=23
2944 Off ch=4 n=67 v=23
3008 On ch=4 n=67 v=23
3072 Off ch=4 n=67 v=23
3072 On ch=4 n=67 v=23
3136 Off ch=4 n=67 v=23
3264 On ch=4 n=67 v=23
3328 Off ch=4 n=67 v=23
3392 On ch=4 n=67 v=23
3456 Off ch=4 n=67 v=23
3456 On ch=4 n=67 v=23
3584 Off ch=4 n=67 v=23
3648 On ch=4 n=67 v=23
3712 Off ch=4 n=67 v=23
3776 On ch=4 n=67 v=23
3840 Off ch=4 n=67 v=23
3840 On ch=4 n=67 v=23
3904 Off ch=4 n=67 v=23
4032 On ch=4 n=67 v=23
4096 Off ch=4 n=67 v=23
4160 On ch=4 n=67 v=23
4224 Off ch=4 n=67 v=23
4224 On ch=4 n=67 v=23
4352 Off ch=4 n=67 v=23
4416 On ch=4 n=67 v=23
4480 Off ch=4 n=67 v=23
4544 On ch=4 n=67 v=23
4608 Off ch=4 n=67 v=23
4608 On ch=4 n=67 v=23
4672 Off ch=4 n=67 v=23
4800 On ch=4 n=67 v=23
4864 Off ch=4 n=67 v=23
4928 On ch=4 n=67 v=23
4992 Off ch=4 n=67 v=23
4992 On ch=4 n=67 v=23
5120 Off ch=4 n=67 v=23
5184 On ch=4 n=67 v=23
5248 Off ch=4 n=67 v=23
5312 On ch=4 n=67 v=23
5376 Off ch=4 n=67 v=23
5376 On ch=4 n=67 v=23
5440 Off ch=4 n=67 v=23
5568 On ch=4 n=67 v=23
5632 Off ch=4 n=67 v=23
5696 On ch=4 n=67 v=23
5760 Off ch=4 n=67 v=23
5760 On ch=4 n=67 v=23
5888 Off ch=4 n=67 v=23
5952 On ch=4 n=67 v=23
6016 Off ch=4 n=67 v=23
6080 On ch=4 n=67 v=23
6144 Off ch=4 n=67 v=23
6144 On ch=4 n=67 v=23
6208 Off ch=4 n=67 v=23
6336 On ch=4 n=67 v=23
6400 Off ch=4 n=67 v=23
6464 On ch=4 n=67 v=23
6528 Off ch=4 n=67 v=23
6528 On ch=4 n=67 v=23
6656 Off ch=4 n=67 v=23
6720 On ch=4 n=67 v=23
6784 Off ch=4 n=67 v=23
6848 On ch=4 n=67 v=23
6912 Off ch=4 n=67 v=23
6912 On ch=4 n=67 v=23
6976 Off ch=4 n=67 v=23
7104 On ch=4 n=67 v=23
7168 Off ch=4 n=67 v=23
7232 On ch=4 n=67 v=23
7296 Off ch=4 n=67 v=23
7296 On ch=4 n=67 v=23
7424 Off ch=4 n=67 v=23
7488 On ch=4 n=67 v=23
7552 Off ch=4 n=67 v=23
7616 On ch=4 n=67 v=23
7680 Off ch=4 n=67 v=23
7680 On ch=4 n=67 v=23
7744 Off ch=4 n=67 v=23
7872 On ch=4 n=67 v=23
7936 Off ch=4 n=67 v=23
8000 On ch=4 n=67 v=23
8064 Off ch=4 n=67 v=23
8064 On ch=4 n=67 v=23
8192 Off ch=4 n=67 v=23
8256 On ch=4 n=67 v=23
8320 Off ch=4 n=67 v=23
8384 On ch=4 n=67 v=23
8448 Off ch=4 n=67 v=23
8448 On ch=4 n=67 v=23
8512 Off ch=4 n=67 v=23
8640 On ch=4 n=67 v=23
8704 Off ch=4 n=67 v=23
8768 On ch=4 n=67 v=23
8832 Off ch=4 n=67 v=23
8832 On ch=4 n=67 v=23
8960 Off ch=4 n=67 v=23
9024 On ch=4 n=67 v=23
9088 Off ch=4 n=67 v=23
9152 On ch=4 n=67 v=23
9216 Off ch=4 n=67 v=23
9216 On ch=4 n=67 v=23
9280 Off ch=4 n=67 v=23
9408 On ch=4 n=67 v=23
9472 Off ch=4 n=67 v=23
9536 On ch=4 n=67 v=23
9600 Off ch=4 n=67 v=23
9600 On ch=4 n=67 v=23
9728 Off ch=4 n=67 v=23
9792 On ch=4 n=67 v=23
9856 Off ch=4 n=67 v=23
9920 On ch=4 n=67 v=23
9984 Off ch=4 n=67 v=23
9984 On ch=4 n=67 v=23
10048 Off ch=4 n=67 v=23
10176 On ch=4 n=67 v=23
10240 Off ch=4 n=67 v=23
10304 On ch=4 n=67 v=23
10368 Off ch=4 n=67 v=23
10368 On ch=4 n=67 v=23
10496 Off ch=4 n=67 v=23
10560 On ch=4 n=67 v=23
10624 Off ch=4 n=67 v=23
10688 On ch=4 n=67 v=23
10752 Off ch=4 n=67 v=23
10752 On ch=4 n=67 v=23
10816 Off ch=4 n=67 v=23
10944 On ch=4 n=67 v=23
11008 Off ch=4 n=67 v=23
11072 On ch=4 n=67 v=23
11136 Off ch=4 n=67 v=23
11136 On ch=4 n=67 v=23
11264 Off ch=4 n=67 v=23
11328 On ch=4 n=67 v=23
11392 Off ch=4 n=67 v=23
11456 On ch=4 n=67 v=23
11520 Off ch=4 n=67 v=23
11520 On ch=4 n=67 v=23
11584 Off ch=4 n=67 v=23
11712 On ch=4 n=67 v=23
11776 Off ch=4 n=67 v=23
11840 On ch=4 n=67 v=23
11904 Off ch=4 n=67 v=23
11904 On ch=4 n=67 v=23
12032 Off ch=4 n=67 v=23
12096 On ch=4 n=67 v=23
12160 Off ch=4 n=67 v=23
12224 On ch=4 n=67 v=23
12288 Off ch=4 n=67 v=23
12288 On ch=4 n=67 v=23
12352 Off ch=4 n=67 v=23
12480 On ch=4 n=67 v=23
12544 Off ch=4 n=67 v=23
12608 On ch=4 n=67 v=23
12672 Off ch=4 n=67 v=23
12672 On ch=4 n=67 v=23
12800 Off ch=4 n=67 v=23
12864 On ch=4 n=67 v=23
12928 Off ch=4 n=67 v=23
12992 On ch=4 n=67 v=23
13056 Off ch=4 n=67 v=23
13056 On ch=4 n=67 v=23
13120 Off ch=4 n=67 v=23
13248 On ch=4 n=67 v=23
13312 Off ch=4 n=67 v=23
13376 On ch=4 n=67 v=23
13440 Off ch=4 n=67 v=23
13440 On ch=4 n=67 v=23
13568 Off ch=4 n=67 v=23
13632 On ch=4 n=67 v=23
13696 Off ch=4 n=67 v=23
13760 On ch=4 n=67 v=23
13824 Off ch=4 n=67 v=23
13824 On ch=4 n=67 v=23
13888 Off ch=4 n=67 v=23
14016 On ch=4 n=67 v=23
14080 Off ch=4 n=67 v=23
14144 On ch=4 n=67 v=23
14208 Off ch=4 n=67 v=23
14208 On ch=4 n=67 v=23
14336 Off ch=4 n=67 v=23
14400 On ch=4 n=67 v=23
14464 Off ch=4 n=67 v=23
14528 On ch=4 n=67 v=23
14592 Off ch=4 n=67 v=23
14592 On ch=4 n=67 v=23
14656 Off ch=4 n=67 v=23
14784 On ch=4 n=67 v=23
14848 Off ch=4 n=67 v=23
14912 On ch=4 n=67 v=23
14976 Off ch=4 n=67 v=23
14976 On ch=4 n=67 v=23
15104 Off ch=4 n=67 v=23
15168 On ch=4 n=67 v=23
15232 Off ch=4 n=67 v=23
15296 On ch=4 n=67 v=23
15360 Off ch=4 n=67 v=23
15360 On ch=4 n=67 v=23
15424 Off ch=4 n=67 v=23
15552 On ch=4 n=67 v=23
15616 Off ch=4 n=67 v=23
15680 On ch=4 n=67 v=23
15744 Off ch=4 n=67 v=23
15744 On ch=4 n=67 v=23
15872 Off ch=4 n=67 v=23
15936 On ch=4 n=67 v=23
16000 Off ch=4 n=67 v=23
16064 On ch=4 n=67 v=23
16128 Off ch=4 n=67 v=23
16128 On ch=4 n=67 v=23
16192 Off ch=4 n=67 v=23
16320 On ch=4 n=67 v=23
16384 Off ch=4 n=67 v=23
16448 On ch=4 n=67 v=23
16512 Off ch=4 n=67 v=23
16512 On ch=4 n=67 v=23
16640 Off ch=4 n=67 v=23
16704 On ch=4 n=67 v=23
16768 Off ch=4 n=67 v=23
16832 On ch=4 n=67 v=23
16896 Off ch=4 n=67 v=23
16896 On ch=4 n=67 v=23
16960 Off ch=4 n=67 v=23
17088 On ch=4 n=67 v=23
17152 Off ch=4 n=67 v=23
17216 On ch=4 n=67 v=23
17280 Off ch=4 n=67 v=23
17280 On ch=4 n=67 v=23
17408 Off ch=4 n=67 v=23
17472 On ch=4 n=67 v=23
17536 Off ch=4 n=67 v=23
17600 On ch=4 n=67 v=23
17664 Off ch=4 n=67 v=23
17664 On ch=4 n=67 v=23
17728 Off ch=4 n=67 v=23
17856 On ch=4 n=67 v=23
17920 Off ch=4 n=67 v=23
17984 On ch=4 n=67 v=23
18048 Off ch=4 n=67 v=23
18048 On ch=4 n=67 v=23
18176 Off ch=4 n=67 v=23
18240 On ch=4 n=67 v=23
18304 Off ch=4 n=67 v=23
18368 On ch=4 n=67 v=23
18432 Off ch=4 n=67 v=23
18432 On ch=4 n=67 v=23
18496 Off ch=4 n=67 v=23
18624 On ch=4 n=67 v=23
18688 Off ch=4 n=67 v=23
18752 On ch=4 n=67 v=23
18816 Off ch=4 n=67 v=23
18816 On ch=4 n=67 v=23
18944 Off ch=4 n=67 v=23
19008 On ch=4 n=67 v=23
19072 Off ch=4 n=67 v=23
19136 On ch=4 n=67 v=23
19200 Off ch=4 n=67 v=23
19200 On ch=4 n=67 v=23
19264 Off ch=4 n=67 v=23
19392 On ch=4 n=67 v=23
19456 Off ch=4 n=67 v=23
19520 On ch=4 n=67 v=23
19584 Off ch=4 n=67 v=23
19584 On ch=4 n=67 v=23
19712 Off ch=4 n=67 v=23
19776 On ch=4 n=67 v=23
19840 Off ch=4 n=67 v=23
19904 On ch=4 n=67 v=23
19968 Off ch=4 n=67 v=23
19968 On ch=4 n=67 v=23
20096 Off ch=4 n=67 v=23
20160 On ch=4 n=67 v=23
20224 Off ch=4 n=67 v=23
20256 On ch=4 n=67 v=23
20384 Off ch=4 n=67 v=23
20448 On ch=4 n=67 v=23
20512 Off ch=4 n=67 v=23
20544 On ch=4 n=67 v=23
20672 Off ch=4 n=67 v=23
20736 On ch=4 n=67 v=23
20864 Off ch=4 n=67 v=23
21024 On ch=4 n=67 v=23
21152 Off ch=4 n=67 v=23
21216 On ch=4 n=67 v=23
21280 Off ch=4 n=67 v=23
21312 On ch=4 n=67 v=23
21376 Off ch=4 n=67 v=23
21408 On ch=4 n=67 v=23
21472 Off ch=4 n=67 v=23
21504 On ch=4 n=67 v=23
21632 Off ch=4 n=67 v=23
21696 On ch=4 n=67 v=23
21760 Off ch=4 n=67 v=23
21792 On ch=4 n=67 v=23
21920 Off ch=4 n=67 v=23
21984 On ch=4 n=67 v=23
22048 Off ch=4 n=67 v=23
22080 On ch=4 n=67 v=23
22208 Off ch=4 n=67 v=23
22272 On ch=4 n=67 v=23
22400 Off ch=4 n=67 v=23
22560 On ch=4 n=67 v=23
22688 Off ch=4 n=67 v=23
22752 On ch=4 n=67 v=23
22816 Off ch=4 n=67 v=23
22848 On ch=4 n=67 v=23
22912 Off ch=4 n=67 v=23
22944 On ch=4 n=67 v=23
23008 Off ch=4 n=67 v=23
23040 On ch=4 n=67 v=23
23168 Off ch=4 n=67 v=23
23232 On ch=4 n=67 v=23
23296 Off ch=4 n=67 v=23
23328 On ch=4 n=67 v=23
23456 Off ch=4 n=67 v=23
23520 On ch=4 n=67 v=23
23584 Off ch=4 n=67 v=23
23616 On ch=4 n=67 v=23
23744 Off ch=4 n=67 v=23
23808 On ch=4 n=67 v=23
23936 Off ch=4 n=67 v=23
24096 On ch=4 n=67 v=23
24224 Off ch=4 n=67 v=23
24288 On ch=4 n=67 v=23
24352 Off ch=4 n=67 v=23
24384 On ch=4 n=67 v=23
24448 Off ch=4 n=67 v=23
24480 On ch=4 n=67 v=23
24544 Off ch=4 n=67 v=23
24576 On ch=4 n=67 v=23
24704 Off ch=4 n=67 v=23
24768 On ch=4 n=67 v=23
24832 Off ch=4 n=67 v=23
24864 On ch=4 n=67 v=23
24992 Off ch=4 n=67 v=23
25056 On ch=4 n=67 v=23
25120 Off ch=4 n=67 v=23
25152 On ch=4 n=67 v=23
25280 Off ch=4 n=67 v=23
25344 On ch=4 n=67 v=23
25472 Off ch=4 n=67 v=23
25632 On ch=4 n=67 v=23
25760 Off ch=4 n=67 v=23
25824 On ch=4 n=67 v=23
25888 Off ch=4 n=67 v=23
25920 On ch=4 n=67 v=23
25984 Off ch=4 n=67 v=23
26016 On ch=4 n=67 v=23
26080 Off ch=4 n=67 v=23
26112 On ch=4 n=67 v=23
26176 Off ch=4 n=67 v=23
26304 On ch=4 n=67 v=23
26368 Off ch=4 n=67 v=23
26432 On ch=4 n=67 v=23
26496 Off ch=4 n=67 v=23
26496 On ch=4 n=67 v=23
26624 Off ch=4 n=67 v=23
26688 On ch=4 n=67 v=23
26752 Off ch=4 n=67 v=23
26816 On ch=4 n=67 v=23
26880 Off ch=4 n=67 v=23
26880 On ch=4 n=67 v=23
26944 Off ch=4 n=67 v=23
27072 On ch=4 n=67 v=23
27136 Off ch=4 n=67 v=23
27200 On ch=4 n=67 v=23
27264 Off ch=4 n=67 v=23
27264 On ch=4 n=67 v=23
27392 Off ch=4 n=67 v=23
27456 On ch=4 n=67 v=23
27520 Off ch=4 n=67 v=23
27584 On ch=4 n=67 v=23
27648 Off ch=4 n=67 v=23
27648 On ch=4 n=67 v=23
27712 Off ch=4 n=67 v=23
27840 On ch=4 n=67 v=23
27904 Off ch=4 n=67 v=23
27968 On ch=4 n=67 v=23
28032 Off ch=4 n=67 v=23
28032 On ch=4 n=67 v=23
28160 Off ch=4 n=67 v=23
28224 On ch=4 n=67 v=23
28288 Off ch=4 n=67 v=23
28352 On ch=4 n=67 v=23
28416 Off ch=4 n=67 v=23
28416 On ch=4 n=67 v=23
28480 Off ch=4 n=67 v=23
28608 On ch=4 n=67 v=23
28672 Off ch=4 n=67 v=23
28736 On ch=4 n=67 v=23
28800 Off ch=4 n=67 v=23
28800 On ch=4 n=67 v=23
28928 Off ch=4 n=67 v=23
28992 On ch=4 n=67 v=23
29056 Off ch=4 n=67 v=23
29120 On ch=4 n=67 v=23
29184 Off ch=4 n=67 v=23
29184 On ch=4 n=67 v=23
29248 Off ch=4 n=67 v=23
29376 On ch=4 n=67 v=23
29440 Off ch=4 n=67 v=23
29504 On ch=4 n=67 v=23
29568 Off ch=4 n=67 v=23
29568 On ch=4 n=67 v=23
29696 Off ch=4 n=67 v=23
29760 On ch=4 n=67 v=23
29824 Off ch=4 n=67 v=23
29888 On ch=4 n=67 v=23
29952 Off ch=4 n=67 v=23
29952 On ch=4 n=67 v=23
30016 Off ch=4 n=67 v=23
30144 On ch=4 n=67 v=23
30208 Off ch=4 n=67 v=23
30272 On ch=4 n=67 v=23
30336 Off ch=4 n=67 v=23
30336 On ch=4 n=67 v=23
30464 Off ch=4 n=67 v=23
30528 On ch=4 n=67 v=23
30592 Off ch=4 n=67 v=23
30656 On ch=4 n=67 v=23
30720 Off ch=4 n=67 v=23
30720 On ch=4 n=67 v=23
30784 Off ch=4 n=67 v=23
30912 On ch=4 n=67 v=23
30976 Off ch=4 n=67 v=23
31040 On ch=4 n=67 v=23
31104 Off ch=4 n=67 v=23
31104 On ch=4 n=67 v=23
31232 Off ch=4 n=67 v=23
31296 On ch=4 n=67 v=23
31360 Off ch=4 n=67 v=23
31424 On ch=4 n=67 v=23
31488 Off ch=4 n=67 v=23
31488 On ch=4 n=67 v=23
31552 Off ch=4 n=67 v=23
31680 On ch=4 n=67 v=23
31744 Off ch=4 n=67 v=23
31808 On ch=4 n=67 v=23
31872 Off ch=4 n=67 v=23
31872 On ch=4 n=67 v=23
32000 Off ch=4 n=67 v=23
32064 On ch=4 n=67 v=23
32128 Off ch=4 n=67 v=23
32192 On ch=4 n=67 v=23
32256 Off ch=4 n=67 v=23
32256 On ch=4 n=67 v=23
32320 Off ch=4 n=67 v=23
32544 On ch=4 n=67 v=23
32608 Off ch=4 n=67 v=23
32640 On ch=4 n=67 v=23
32768 Off ch=4 n=67 v=23
32832 On ch=4 n=67 v=23
32896 Off ch=4 n=67 v=23
33024 On ch=4 n=67 v=23
33088 Off ch=4 n=67 v=23
33312 On ch=4 n=67 v=23
33376 Off ch=4 n=67 v=23
33408 On ch=4 n=67 v=23
33536 Off ch=4 n=67 v=23
33600 On ch=4 n=67 v=23
33664 Off ch=4 n=67 v=23
33792 On ch=4 n=67 v=23
33856 Off ch=4 n=67 v=23
34080 On ch=4 n=67 v=23
34144 Off ch=4 n=67 v=23
34176 On ch=4 n=67 v=23
34304 Off ch=4 n=67 v=23
34368 On ch=4 n=67 v=23
34432 Off ch=4 n=67 v=23
34560 On ch=4 n=67 v=23
34624 Off ch=4 n=67 v=23
34848 On ch=4 n=67 v=23
34912 Off ch=4 n=67 v=23
34944 On ch=4 n=67 v=23
35072 Off ch=4 n=67 v=23
35136 On ch=4 n=67 v=23
35200 Off ch=4 n=67 v=23
35328 On ch=4 n=67 v=23
35392 Off ch=4 n=67 v=23
35616 On ch=4 n=67 v=23
35680 Off ch=4 n=67 v=23
35712 On ch=4 n=67 v=23
35840 Off ch=4 n=67 v=23
35904 On ch=4 n=67 v=23
35968 Off ch=4 n=67 v=23
36096 On ch=4 n=67 v=23
36160 Off ch=4 n=67 v=23
36384 On ch=4 n=67 v=23
36448 Off ch=4 n=67 v=23
36480 On ch=4 n=67 v=23
36608 Off ch=4 n=67 v=23
36672 On ch=4 n=67 v=23
36736 Off ch=4 n=67 v=23
36864 On ch=4 n=67 v=23
36928 Off ch=4 n=67 v=23
37152 On ch=4 n=67 v=23
37216 Off ch=4 n=67 v=23
37248 On ch=4 n=67 v=23
37376 Off ch=4 n=67 v=23
37440 On ch=4 n=67 v=23
37504 Off ch=4 n=67 v=23
37632 On ch=4 n=67 v=23
37696 Off ch=4 n=67 v=23
37920 On ch=4 n=67 v=23
37984 Off ch=4 n=67 v=23
38016 On ch=4 n=67 v=23
38144 Off ch=4 n=67 v=23
38208 On ch=4 n=67 v=23
38272 Off ch=4 n=67 v=23
38400 On ch=4 n=67 v=23
38464 Off ch=4 n=67 v=23
38688 On ch=4 n=67 v=23
38752 Off ch=4 n=67 v=23
38784 On ch=4 n=67 v=23
38912 Off ch=4 n=67 v=23
38976 On ch=4 n=67 v=23
39040 Off ch=4 n=67 v=23
39168 On ch=4 n=67 v=23
39232 Off ch=4 n=67 v=23
39456 On ch=4 n=67 v=23
39520 Off ch=4 n=67 v=23
39552 On ch=4 n=67 v=23
39680 Off ch=4 n=67 v=23
39744 On ch=4 n=67 v=23
39808 Off ch=4 n=67 v=23
39936 On ch=4 n=67 v=23
40000 Off ch=4 n=67 v=23
40224 On ch=4 n=67 v=23
40288 Off ch=4 n=67 v=23
40320 On ch=4 n=67 v=23
40448 Off ch=4 n=67 v=23
40512 On ch=4 n=67 v=23
40576 Off ch=4 n=67 v=23
40704 On ch=4 n=67 v=23
40768 Off ch=4 n=67 v=23
40992 On ch=4 n=67 v=23
41056 Off ch=4 n=67 v=23
41088 On ch=4 n=67 v=23
41216 Off ch=4 n=67 v=23
41280 On ch=4 n=67 v=23
41344 Off ch=4 n=67 v=23
41472 On ch=4 n=67 v=23
41536 Off ch=4 n=67 v=23
41760 On ch=4 n=67 v=23
41824 Off ch=4 n=67 v=23
41856 On ch=4 n=67 v=23
41984 Off ch=4 n=67 v=23
42048 On ch=4 n=67 v=23
42112 Off ch=4 n=67 v=23
42240 On ch=4 n=67 v=23
42304 Off ch=4 n=67 v=23
42528 On ch=4 n=67 v=23
42592 Off ch=4 n=67 v=23
42624 On ch=4 n=67 v=23
42752 Off ch=4 n=67 v=23
42816 On ch=4 n=67 v=23
42880 Off ch=4 n=67 v=23
43008 On ch=4 n=67 v=23
43072 Off ch=4 n=67 v=23
43296 On ch=4 n=67 v=23
43360 Off ch=4 n=67 v=23
43392 On ch=4 n=67 v=23
43520 Off ch=4 n=67 v=23
43584 On ch=4 n=67 v=23
43648 Off ch=4 n=67 v=23
43776 On ch=4 n=67 v=23
43840 Off ch=4 n=67 v=23
44064 On ch=4 n=67 v=23
44128 Off ch=4 n=67 v=23
44160 On ch=4 n=67 v=23
44288 Off ch=4 n=67 v=23
44352 On ch=4 n=67 v=23
44416 Off ch=4 n=67 v=23
44544 On ch=4 n=67 v=23
44672 Off ch=4 n=67 v=23
44736 On ch=4 n=67 v=23
44800 Off ch=4 n=67 v=23
44832 On ch=4 n=67 v=23
44960 Off ch=4 n=67 v=23
45024 On ch=4 n=67 v=23
45088 Off ch=4 n=67 v=23
45120 On ch=4 n=67 v=23
45248 Off ch=4 n=67 v=23
45312 On ch=4 n=67 v=23
45440 Off ch=4 n=67 v=23
45600 On ch=4 n=67 v=23
45728 Off ch=4 n=67 v=23
45792 On ch=4 n=67 v=23
45856 Off ch=4 n=67 v=23
45888 On ch=4 n=67 v=23
45952 Off ch=4 n=67 v=23
45984 On ch=4 n=67 v=23
46048 Off ch=4 n=67 v=23
46080 On ch=4 n=67 v=23
46208 Off ch=4 n=67 v=23
46272 On ch=4 n=67 v=23
46336 Off ch=4 n=67 v=23
46368 On ch=4 n=67 v=23
46496 Off ch=4 n=67 v=23
46560 On ch=4 n=67 v=23
46624 Off ch=4 n=67 v=23
46656 On ch=4 n=67 v=23
46784 Off ch=4 n=67 v=23
46848 On ch=4 n=67 v=23
46976 Off ch=4 n=67 v=23
47136 On ch=4 n=67 v=23
47264 Off ch=4 n=67 v=23
47328 On ch=4 n=67 v=23
47392 Off ch=4 n=67 v=23
47424 On ch=4 n=67 v=23
47488 Off ch=4 n=67 v=23
47520 On ch=4 n=67 v=23
47584 Off ch=4 n=67 v=23
47616 On ch=4 n=67 v=23
47744 Off ch=4 n=67 v=23
47808 On ch=4 n=67 v=23
47872 Off ch=4 n=67 v=23
47904 On ch=4 n=67 v=23
48032 Off ch=4 n=67 v=23
48096 On ch=4 n=67 v=23
48160 Off ch=4 n=67 v=23
48192 On ch=4 n=67 v=23
48320 Off ch=4 n=67 v=23
48384 On ch=4 n=67 v=23
48512 Off ch=4 n=67 v=23
48672 On ch=4 n=67 v=23
48800 Off ch=4 n=67 v=23
48864 On ch=4 n=67 v=23
48928 Off ch=4 n=67 v=23
48960 On ch=4 n=67 v=23
49024 Off ch=4 n=67 v=23
49056 On ch=4 n=67 v=23
49120 Off ch=4 n=67 v=23
49152 On ch=4 n=67 v=23
49280 Off ch=4 n=67 v=23
49344 On ch=4 n=67 v=23
49408 Off ch=4 n=67 v=23
49440 On ch=4 n=67 v=23
49568 Off ch=4 n=67 v=23
49632 On ch=4 n=67 v=23
49696 Off ch=4 n=67 v=23
49728 On ch=4 n=67 v=23
49856 Off ch=4 n=67 v=23
49920 On ch=4 n=67 v=23
50048 Off ch=4 n=67 v=23
50208 On ch=4 n=67 v=23
50336 Off ch=4 n=67 v=23
50400 On ch=4 n=67 v=23
50464 Off ch=4 n=67 v=23
50496 On ch=4 n=67 v=23
50560 Off ch=4 n=67 v=23
50592 On ch=4 n=67 v=23
50656 Off ch=4 n=67 v=23
50688 On ch=4 n=67 v=23
50752 Off ch=4 n=67 v=23
50976 On ch=4 n=67 v=23
51040 Off ch=4 n=67 v=23
51072 On ch=4 n=67 v=23
51200 Off ch=4 n=67 v=23
51264 On ch=4 n=67 v=23
51328 Off ch=4 n=67 v=23
51456 On ch=4 n=67 v=23
51520 Off ch=4 n=67 v=23
51744 On ch=4 n=67 v=23
51808 Off ch=4 n=67 v=23
51840 On ch=4 n=67 v=23
51968 Off ch=4 n=67 v=23
52032 On ch=4 n=67 v=23
52096 Off ch=4 n=67 v=23
52224 On ch=4 n=67 v=23
52288 Off ch=4 n=67 v=23
52512 On ch=4 n=67 v=23
52576 Off ch=4 n=67 v=23
52608 On ch=4 n=67 v=23
52736 Off ch=4 n=67 v=23
52800 On ch=4 n=67 v=23
52864 Off ch=4 n=67 v=23
52992 On ch=4 n=67 v=23
53056 Off ch=4 n=67 v=23
53280 On ch=4 n=67 v=23
53344 Off ch=4 n=67 v=23
53376 On ch=4 n=67 v=23
53504 Off ch=4 n=67 v=23
53568 On ch=4 n=67 v=23
53632 Off ch=4 n=67 v=23
53760 On ch=4 n=67 v=23
53824 Off ch=4 n=67 v=23
54048 On ch=4 n=67 v=23
54112 Off ch=4 n=67 v=23
54144 On ch=4 n=67 v=23
54272 Off ch=4 n=67 v=23
54336 On ch=4 n=67 v=23
54400 Off ch=4 n=67 v=23
54528 On ch=4 n=67 v=23
54592 Off ch=4 n=67 v=23
54816 On ch=4 n=67 v=23
54880 Off ch=4 n=67 v=23
54912 On ch=4 n=67 v=23
55040 Off ch=4 n=67 v=23
55104 On ch=4 n=67 v=23
55168 Off ch=4 n=67 v=23
55296 On ch=4 n=67 v=23
55360 Off ch=4 n=67 v=23
55584 On ch=4 n=67 v=23
55648 Off ch=4 n=67 v=23
55680 On ch=4 n=67 v=23
55808 Off ch=4 n=67 v=23
55872 On ch=4 n=67 v=23
55936 Off ch=4 n=67 v=23
56064 On ch=4 n=67 v=23
56128 Off ch=4 n=67 v=23
56352 On ch=4 n=67 v=23
56416 Off ch=4 n=67 v=23
56448 On ch=4 n=67 v=23
56576 Off ch=4 n=67 v=23
56640 On ch=4 n=67 v=23
56704 Off ch=4 n=67 v=23
56704 Meta TrkEnd
TrkEnd
MTrk
0 Meta TrkEnd
TrkEnd
MTrk
0 Meta TrkEnd
TrkEnd
